<svg width="86" height="80" viewBox="0 0 86 80" fill="none" xmlns="http://www.w3.org/2000/svg">
<path d="M26.1113 8.97812C26.1113 8.97812 7.77737 7.79255 3.47681 12.1876C-0.815044 16.5827 -1.86842 23.8231 4.57371 23.0355C11.0246 22.2564 25.2321 12.2977 26.1113 8.97812Z" fill="#FFE465"/>
<path opacity="0.8" d="M21.5754 11.3408C21.5754 11.3408 7.66392 12.7635 4.73014 16.8114C1.78765 20.8592 5.40046 19.1571 10.3539 18.1494C15.2987 17.1501 21.5754 11.3408 21.5754 11.3408Z" fill="black"/>
<path d="M26.3828 10.4528C26.3996 10.4403 26.4135 10.4302 26.4243 10.4223C33.7976 6.66993 42.2334 6.46815 49.5237 8.65451C56.834 10.8469 62.9223 15.4174 65.6357 21.1163L65.6358 21.1164C68.3645 26.8434 68.8055 35.2114 67.683 43.6576C66.5621 52.092 63.895 60.5076 60.5022 66.2927C57.1521 72.0049 50.995 75.9703 43.8621 77.9814C36.7327 79.9916 28.6827 80.0321 21.6214 77.9472C11.2509 74.8846 6.39395 68.4625 4.48747 62.1365C3.53082 58.9622 3.31474 55.8022 3.53037 53.0903C3.74667 50.3699 4.39428 48.1357 5.13268 46.8028C7.10036 43.2536 9.05156 40.2955 10.8439 37.5781C11.6009 36.4305 12.3295 35.3258 13.0191 34.2377C15.3326 30.5873 17.1881 27.1483 18.0686 23.0211L18.0687 23.0206C18.9027 19.0922 20.9938 15.9365 22.8919 13.7541C23.8394 12.6647 24.7341 11.8233 25.3905 11.2554C25.7185 10.9715 25.9865 10.7564 26.1712 10.6132C26.2636 10.5416 26.3351 10.488 26.3828 10.4528Z" fill="#F4F5FF" stroke="black"/>
<path d="M24.5411 37.1829L24.5407 37.1835C23.9707 38.2305 23.1925 39.3432 22.2531 40.036C21.3396 40.7098 20.3011 40.9744 19.0963 40.4157C17.7134 39.7742 17.0252 38.3185 17.2814 36.9168C17.3189 37.3985 17.4106 37.9341 17.5921 38.4249C17.8731 39.1849 18.4231 39.959 19.4317 40.0865C20.6041 40.2388 21.4792 39.5344 22.0858 38.7669C22.6471 38.0566 23.065 37.1853 23.3557 36.5792C23.3807 36.5271 23.4047 36.4769 23.4279 36.429C23.5093 36.2605 23.6123 36.2081 23.7148 36.1927C23.841 36.1738 24.0169 36.2082 24.1951 36.3168C24.5777 36.55 24.6929 36.905 24.5411 37.1829Z" fill="#282B2D" stroke="black"/>
<path d="M46.7386 41.0848L46.7382 41.0854C46.1682 42.1323 45.39 43.2451 44.4506 43.9379C43.5371 44.6117 42.4986 44.8763 41.2938 44.3175C39.9109 43.676 39.2227 42.2204 39.4789 40.8186C39.5164 41.3003 39.6081 41.8359 39.7896 42.3267C40.0706 43.0867 40.6206 43.8608 41.6292 43.9883C42.8017 44.1406 43.6767 43.4363 44.2833 42.6687C44.8446 41.9584 45.2625 41.0871 45.5532 40.481C45.5782 40.4289 45.6023 40.3788 45.6254 40.3308C45.7068 40.1624 45.8098 40.11 45.9123 40.0946C46.0385 40.0757 46.2144 40.1101 46.3926 40.2187C46.7752 40.4519 46.8904 40.8069 46.7386 41.0848Z" fill="#282B2D" stroke="black"/>
<path d="M31.7829 52.2712C31.7208 52.2342 31.6781 52.1931 31.6489 52.1569C31.7047 52.0523 31.8041 51.9391 31.9638 51.8219C32.1934 51.6534 32.5058 51.5085 32.8552 51.3961C33.2014 51.2846 33.5616 51.2121 33.8707 51.1771C34.1962 51.1402 34.4118 51.151 34.4918 51.1703L34.4918 51.1703L34.4977 51.1716C34.6715 51.2111 34.6842 51.3202 34.6806 51.341C34.6749 51.3739 34.6409 51.4812 34.4507 51.6381C34.2603 51.7952 33.9389 51.9793 33.4243 52.16C32.4033 52.5187 31.953 52.3726 31.7829 52.2712Z" fill="#282B2D" stroke="black"/>
<path d="M18.5733 48.8691C18.5602 48.8452 18.5498 48.826 18.5425 48.8123C18.1782 47.8187 18.4356 47.6101 18.449 47.6005C18.4808 47.5779 18.5478 47.5538 18.6573 47.5668C18.7659 47.5798 18.8704 47.6252 18.9381 47.6784C19.1436 47.847 19.5317 48.3725 19.7601 48.9619C19.8721 49.2506 19.929 49.514 19.9243 49.7233C19.9197 49.924 19.8616 50.0385 19.777 50.1119L19.777 50.1119L19.7731 50.1153C19.735 50.149 19.7166 50.1503 19.7143 50.1505C19.7142 50.1505 19.7141 50.1505 19.7141 50.1505C19.7076 50.1512 19.6804 50.1524 19.6242 50.1275C19.4979 50.0714 19.3317 49.9322 19.1487 49.7176C18.9739 49.5126 18.8184 49.2802 18.7045 49.0939C18.6482 49.0019 18.6035 48.9236 18.5733 48.8691Z" fill="#282B2D" stroke="black"/>
<path d="M21.0544 58.2967C21.081 58.2967 21.081 58.2551 21.0544 58.2551C21.0278 58.2551 21.0278 58.2967 21.0544 58.2967Z" fill="#282B2D" stroke="black"/>
<path d="M23.2479 58.5581C23.2488 58.5565 23.2497 58.555 23.2507 58.5536L23.321 58.5468C23.3333 58.5658 23.3461 58.5874 23.3594 58.6112C23.3773 58.6435 23.3917 58.6717 23.4071 58.7018C23.4116 58.7106 23.4162 58.7196 23.421 58.7289L23.4209 58.729L23.4252 58.737C23.4623 58.806 23.4808 58.9206 23.49 59.1719C23.4908 59.1916 23.4914 59.2126 23.4921 59.2346C23.4985 59.439 23.5079 59.7378 23.6036 60.0063L23.604 60.0074C23.9006 60.833 24.5415 61.545 25.2697 61.9853L25.2697 61.9853L25.2729 61.9872C26.8867 62.9468 28.4611 62.5207 29.6567 61.5824C30.8318 60.6601 31.7016 59.2104 32.0445 57.9265L32.0452 57.9235C32.0896 57.7532 32.172 57.6879 32.2508 57.6559C32.3486 57.6162 32.4956 57.6094 32.6588 57.6635C32.8212 57.7172 32.9533 57.8164 33.027 57.9249C33.0927 58.0215 33.1188 58.1311 33.0765 58.2706L33.0763 58.2712C32.2748 60.9267 30.1807 63.2299 27.3068 63.1156L27.3065 63.1156C26.1512 63.0704 24.9618 62.4952 24.1474 61.628C23.3399 60.7682 22.9453 59.6754 23.2393 58.5758C23.241 58.5713 23.2438 58.565 23.2479 58.5581Z" fill="#302218" stroke="#373218"/>
<path opacity="0.8" d="M51.1726 50.6584L51.1724 50.6594C51.0909 50.9484 50.7258 51.2756 49.911 51.4336C49.1318 51.5846 48.0915 51.5415 46.987 51.2437C45.8821 50.9458 44.9678 50.4624 44.3812 49.9448C43.7681 49.4038 43.6335 48.948 43.7156 48.6644L43.7166 48.661C43.798 48.3721 44.163 48.0448 44.979 47.8869C45.7591 47.7358 46.8017 47.7789 47.9107 48.0767C49.0101 48.3743 49.9199 48.8593 50.5046 49.378C51.1165 49.9207 51.2523 50.3777 51.1726 50.6584Z" fill="#DAB2C8" stroke="black"/>
<path opacity="0.8" d="M16.4893 42.7804L16.4893 42.7806C16.4675 43.0778 16.1776 43.4665 15.4101 43.7762C14.6764 44.0724 13.6473 44.2282 12.5049 44.1476L12.5048 44.1476C11.3588 44.0671 10.3663 43.766 9.68762 43.3682C8.97885 42.9527 8.75038 42.5261 8.77233 42.2272C8.79415 41.93 9.08399 41.5413 9.85151 41.2316C10.5851 40.9355 11.6138 40.7797 12.7558 40.8601C13.8974 40.9447 14.8905 41.2478 15.571 41.6461C16.2836 42.0632 16.5109 42.488 16.4893 42.7804ZM16.988 42.8172C16.9009 44.0028 14.8725 44.8158 12.4698 44.6464L16.988 42.8172Z" fill="#DAB2C8" stroke="black"/>
<path d="M66.8882 19.3857C66.8882 19.3857 83.5507 26.931 85.1438 32.7911C86.7369 38.6596 84.073 45.4936 78.8148 41.7845C73.5392 38.0838 66.0089 22.6969 66.8882 19.3857Z" fill="#FFE465"/>
<path opacity="0.8" d="M69.6826 23.5779C69.6826 23.5779 81.1653 31.3433 81.7398 36.2634C82.3144 41.1835 79.99 38.0079 76.1509 34.8069C72.3204 31.6058 69.6826 23.5779 69.6826 23.5779Z" fill="#050505"/>
<path d="M23.97 24.255C25.6327 22.7307 26.7383 20.6644 27.8178 18.6405C27.104 21.2741 29.7592 23.8993 32.3709 23.8654C34.9825 23.8316 37.2547 21.9431 38.8826 19.8006C37.4288 21.9939 39.0306 25.3135 41.4421 26.1688C43.8622 27.0157 46.5435 25.9825 48.5981 24.3989C47.9713 27.1427 47.9539 30.132 49.0943 32.6894C50.2347 35.2469 52.6984 37.2539 55.3884 37.2454C58.0784 37.2369 60.7162 34.8404 60.6466 32.012C60.5595 35.2553 60.8294 39.1762 63.563 40.7089C65.5827 41.8437 68.2204 41.0138 69.8223 39.3032C71.4241 37.5926 72.1815 35.1961 72.6255 32.8419C73.2 29.7679 72.7473 25.6777 69.8658 24.8308C70.8844 22.7646 70.7886 20.1394 69.622 18.1493C68.4555 16.1677 66.2617 14.8975 64.0418 14.9144C63.8938 10.079 58.7662 6.15818 54.3263 7.49618C53.8301 5.13351 52.6375 2.79626 50.6265 1.61069C48.6068 0.425125 45.6991 0.780794 44.4281 2.80472C42.835 1.16187 40.6063 -0.0575695 38.4125 0.39972C36.2187 0.857009 34.4776 3.5584 35.5136 5.64161C34.1294 3.61768 31.4829 2.64383 29.1933 3.31282C26.9038 3.98182 25.1191 6.24286 24.9276 8.72408C22.5161 8.74949 19.9219 8.83417 17.9718 10.3246C16.0914 11.7557 15.334 14.9144 17.0926 16.7521C12.7137 15.9222 13.236 20.9015 14.951 23.2557C17.3798 26.6007 20.8011 27.1681 23.97 24.255Z" fill="#FFE465"/>
<path d="M23.9698 24.2549C25.6586 22.6798 26.7381 20.6304 27.8002 18.6319C27.8089 18.6234 27.8176 18.615 27.8263 18.6234C27.835 18.6319 27.835 18.6404 27.835 18.6488C27.4868 19.9191 27.9743 21.2825 28.8623 22.2309C29.7416 23.1879 31.03 23.8399 32.3532 23.8315C33.6852 23.8145 34.9649 23.281 36.0357 22.5273C37.1152 21.7737 38.0293 20.8083 38.8128 19.7667C38.8389 19.7413 38.8737 19.7328 38.9085 19.7497C38.9347 19.7667 38.9434 19.809 38.926 19.8429C38.2208 20.9014 38.2643 22.2902 38.7605 23.4334C39.2568 24.5767 40.1796 25.5844 41.3635 26.0332C42.5562 26.482 43.9055 26.4397 45.1243 26.0671C46.3518 25.703 47.4835 25.0594 48.476 24.2718C48.5456 24.2125 48.6501 24.2295 48.711 24.2972C48.7459 24.3396 48.7546 24.3904 48.7459 24.4327C48.3106 26.4143 48.1974 28.4806 48.5979 30.4622C48.9896 32.4353 49.9995 34.2983 51.5839 35.5601C53.1248 36.8219 55.3447 37.4062 57.1816 36.5678C59.001 35.7887 60.3504 33.9426 60.272 32.0288H60.9859C60.9685 33.3753 60.9946 34.7217 61.2297 36.0258C61.4473 37.3215 61.8826 38.6002 62.7357 39.5317C63.5802 40.4717 64.8425 40.9544 66.1135 40.7681C67.3845 40.6157 68.5859 39.9467 69.4564 39.0236C71.2237 37.1098 71.9288 34.3745 72.277 31.7832C72.4076 30.4791 72.3554 29.1496 71.9897 27.9217C71.6415 26.7022 70.8754 25.6098 69.7089 25.2965C69.4477 25.2203 69.291 24.9577 69.3694 24.7037C69.3781 24.6783 69.3868 24.6529 69.3955 24.636L69.4042 24.619C70.3183 22.7221 70.2486 20.3679 69.2475 18.5303C68.2464 16.6927 66.1744 15.3801 64.0416 15.397C63.7804 15.397 63.5628 15.1938 63.554 14.9397C63.4931 12.7972 62.344 10.7225 60.6203 9.35909C58.9227 7.98723 56.5635 7.28435 54.4567 7.91948C54.2217 7.97876 53.9779 7.85173 53.8996 7.62309L53.8909 7.58075C53.6645 6.48833 53.2902 5.41285 52.7417 4.44747C52.202 3.48208 51.462 2.61831 50.5305 2.02553C49.6251 1.44121 48.476 1.2041 47.3965 1.35653C46.317 1.50049 45.2984 2.07634 44.7239 2.98245C44.6194 3.14334 44.4105 3.19415 44.2451 3.101C44.219 3.08407 44.1928 3.06713 44.1667 3.04172C43.418 2.25417 42.5301 1.5767 41.5463 1.12788C40.5626 0.670593 39.457 0.475822 38.4123 0.704467C37.3938 0.933111 36.5058 1.66986 35.9748 2.57597C35.435 3.47361 35.2696 4.60836 35.731 5.53988C35.7919 5.65844 35.7397 5.8024 35.6178 5.86168C35.5047 5.92095 35.3654 5.87861 35.2957 5.77699C34.0334 3.86315 31.413 2.82155 29.1496 3.52442C26.8948 4.22729 25.2582 6.42905 25.058 8.73244C25.0493 8.80018 24.9883 8.85099 24.9187 8.85946C23.6999 8.86793 22.4724 8.88487 21.271 9.07964C20.0784 9.27441 18.9031 9.68936 17.9542 10.4261C17.014 11.1628 16.4133 12.2722 16.2131 13.4239C16.0042 14.5756 16.274 15.8374 17.1098 16.7096C17.1359 16.735 17.1272 16.7689 17.1098 16.7943C17.0924 16.8112 17.0749 16.8112 17.0575 16.8112C16.2566 16.6757 15.3686 16.6673 14.6896 17.1245C14.028 17.6072 13.7668 18.4456 13.732 19.2416C13.6972 20.8506 14.2717 22.4765 15.3338 23.7214C16.3524 24.9747 17.8062 26.0248 19.4951 26.1179C21.1927 26.2195 22.7684 25.3473 23.9698 24.2549ZM23.9698 24.2549C22.7684 25.3558 21.2014 26.2365 19.5038 26.1348C17.8062 26.0502 16.3263 25.0001 15.299 23.7468C14.2282 22.4935 13.6275 20.8591 13.6536 19.2247C13.6798 18.4202 13.9409 17.548 14.6374 17.0314C15.3599 16.5402 16.274 16.5487 17.0924 16.6842L17.0401 16.7773C16.1696 15.8882 15.8823 14.5756 16.0912 13.39C16.2914 12.2045 16.9008 11.0612 17.8672 10.2906C18.8335 9.51999 20.0348 9.07964 21.2449 8.85946C22.4637 8.63929 23.6999 8.59694 24.9274 8.58001L24.7881 8.70703C24.9622 6.29356 26.6076 3.96477 29.0364 3.16028C30.2465 2.77074 31.5784 2.83002 32.7624 3.2619C33.9464 3.68532 34.9997 4.47287 35.7136 5.50601L35.2783 5.74312C34.7125 4.64224 34.904 3.32118 35.496 2.30498C36.0792 1.28031 37.0543 0.425012 38.273 0.128621C39.4744 -0.159302 40.7367 0.0608741 41.8162 0.543569C42.9044 1.02626 43.862 1.7376 44.6803 2.5675L44.1232 2.62678C44.7935 1.52589 46.0123 0.814555 47.2746 0.628252C48.5369 0.43348 49.8776 0.68753 50.9658 1.35653C52.0453 2.01706 52.881 2.98245 53.4904 4.03252C54.0998 5.09106 54.5002 6.23428 54.7527 7.40291L54.1868 7.07265C55.3969 6.70004 56.7028 6.70851 57.9128 7.0049C59.1229 7.30129 60.2459 7.87714 61.2035 8.63082C63.1188 10.1382 64.442 12.4331 64.5204 14.8889L64.0329 14.4316C66.5836 14.4062 68.9602 15.9136 70.1442 18.0476C71.3281 20.1901 71.3891 22.8322 70.3183 25.034L70.0136 24.3565C70.7797 24.5851 71.4761 25.0678 71.9549 25.6691C72.4424 26.2703 72.7471 26.9647 72.9474 27.6507C73.3565 29.0479 73.3914 30.4791 73.2434 31.8679C73.0779 33.2736 72.7558 34.6032 72.2945 35.9327C71.8243 37.2538 71.1453 38.5409 70.1355 39.5995C69.1082 40.658 67.7501 41.4202 66.2267 41.598C65.4693 41.6912 64.6858 41.6149 63.9632 41.3355C63.2319 41.0645 62.6138 40.5987 62.1176 40.0398C61.1252 38.9051 60.6899 37.4824 60.4723 36.1105C60.2546 34.7302 60.2459 33.3499 60.2807 31.978C60.2807 31.7832 60.4462 31.6308 60.6464 31.6393C60.8379 31.6393 60.9946 31.7917 60.9946 31.978C61.0381 34.2221 59.4711 36.2376 57.434 37.0844C56.4155 37.5163 55.2315 37.6179 54.1607 37.3638C53.0812 37.1267 52.0888 36.6017 51.2618 35.9158C49.5816 34.5524 48.563 32.5538 48.1887 30.513C47.7969 28.4552 47.9536 26.3466 48.4324 24.3396L48.6936 24.5005C47.6577 25.288 46.4824 25.9316 45.2114 26.2957C43.9491 26.6599 42.5388 26.6938 41.2939 26.2026C40.049 25.703 39.1175 24.6529 38.6213 23.4673C38.1163 22.2902 38.0728 20.8506 38.8215 19.7497L38.9347 19.8259C38.1337 20.8675 37.211 21.8414 36.1141 22.5951C35.0259 23.3488 33.7287 23.8823 32.3707 23.8907C31.0039 23.8907 29.7154 23.2217 28.8275 22.2479C27.9308 21.2825 27.4433 19.8937 27.8089 18.615L27.8437 18.6319C26.7643 20.6389 25.6761 22.6882 23.9698 24.2549Z" fill="#050505"/>
<path d="M26.5639 13.2625C27.5824 10.6627 30.7861 12.6612 31.7785 14.0924C31.822 14.1601 31.9613 14.2024 31.9961 14.1008C32.9102 11.8821 35.6612 10.7389 37.9508 11.7466C38.0639 11.7974 38.09 11.6365 38.0117 11.5857C36.9148 10.7389 35.6873 10.4425 34.3466 10.9252C33.6328 11.1793 33.0582 11.5942 32.5794 12.1701C32.0745 12.7713 32.0658 13.5758 31.4912 13.1778C30.8731 12.7459 30.7164 11.7974 29.9852 11.3571C29.4454 11.0353 28.836 10.9083 28.2179 10.9591C26.8947 11.0692 26.146 11.9922 26.3723 13.254C26.4072 13.3471 26.5377 13.3471 26.5639 13.2625Z" fill="#050505"/>
<path d="M48.3541 16.6166C49.8689 16.3032 51.5578 16.5996 51.8973 18.3272C51.9495 18.5812 52.2281 18.7675 52.4719 18.7845C53.4295 18.8607 54.2217 19.428 54.6744 20.2495C55.101 21.0201 54.9268 21.7314 54.8485 22.5444C54.8137 22.8916 55.3969 23.2134 55.6494 22.9085C57.3905 20.766 54.8137 17.7344 52.4457 17.6412C52.6373 17.7937 52.8288 17.9461 53.0203 18.0985C52.585 16.244 49.7122 14.5249 48.1365 16.2355C47.9972 16.3964 48.1452 16.6589 48.3541 16.6166Z" fill="#050505"/>
<path d="M44.506 9.046C45.3156 6.91199 47.4833 7.03901 49.3899 7.18297C49.564 7.19991 49.7294 7.01361 49.6597 6.84424C49.0939 5.48084 47.4224 5.2522 46.1079 5.61633C44.6279 6.03128 43.3743 7.08982 43.1741 8.62259C43.0696 9.42708 44.1926 9.8759 44.506 9.046Z" fill="#050505"/>
<path d="M64.8335 27.6843C65.9914 27.5149 65.9914 25.9228 65.8869 25.0929C65.7215 23.8396 65.1731 22.6456 64.0326 21.9766C63.519 21.6717 63.0576 22.1968 63.2839 22.6795C63.7018 23.5602 64.198 24.424 64.3025 25.4063C64.3721 26.1346 64.198 26.9814 64.6594 27.608C64.7029 27.6589 64.7639 27.6927 64.8335 27.6843Z" fill="#050505"/>
</svg>
