<svg width="44" height="43" viewBox="0 0 44 43" fill="none" xmlns="http://www.w3.org/2000/svg">
<path fill-rule="evenodd" clip-rule="evenodd" d="M22.1837 29.8133L27.2748 24.6713C27.7893 24.1338 27.7893 23.2917 27.2571 22.7721C26.7427 22.2525 25.9089 22.2525 25.3945 22.7721L22.5739 25.6388V17.0029C22.5739 16.2504 21.9885 15.6592 21.2612 15.6592C20.5339 15.6592 19.9308 16.2504 19.9308 17.0029V25.6388L17.1102 22.7721C16.5958 22.2525 15.762 22.2525 15.2476 22.7721C14.7332 23.2917 14.7332 24.1338 15.2476 24.6713L20.321 29.8133C20.4452 29.9388 20.5871 30.0283 20.7468 30.1C20.9064 30.1717 21.0838 30.2075 21.2612 30.2075C21.4386 30.2075 21.5983 30.1717 21.7579 30.1C21.9176 30.0283 22.0595 29.9388 22.1837 29.8133ZM35.0383 16.1709C35.4553 16.1661 35.9093 16.1608 36.3219 16.1608C36.7831 16.1608 37.1379 16.5192 37.1379 16.9671V31.3721C37.1379 35.8154 33.5545 39.4167 29.1552 39.4167H15.0525C10.4225 39.4167 6.67953 35.6363 6.67953 30.9779V11.6638C6.67953 7.22042 10.2451 3.58334 14.6799 3.58334H24.1527C24.5962 3.58334 24.9687 3.95959 24.9687 4.4075V10.1767C24.9687 13.4554 27.6296 16.1429 30.8936 16.1608C31.6434 16.1608 32.3142 16.1665 32.8999 16.1715C33.3535 16.1753 33.756 16.1788 34.1045 16.1788C34.357 16.1788 34.6843 16.175 35.0383 16.1709ZM35.5334 13.5559C34.077 13.5613 32.358 13.5559 31.1216 13.5434C29.1596 13.5434 27.5436 11.9112 27.5436 9.9296V5.20676C27.5436 4.43456 28.4713 4.05114 29 4.60835C30.3659 6.04144 32.4567 8.23758 34.2241 10.094C34.9403 10.8463 35.6034 11.5427 36.1436 12.1101C36.6616 12.6529 36.2819 13.5541 35.5334 13.5559Z" fill="#353B40"/>
</svg>
