<svg width="24" height="24" viewBox="0 0 24 24" fill="none" xmlns="http://www.w3.org/2000/svg">
<path d="M12.0001 1.99933C6.4801 1.99933 2.0001 6.48033 2.0001 11.9993C2.0001 17.5203 6.4801 21.9993 12.0001 21.9993C17.5301 21.9993 22.0001 17.5203 22.0001 11.9993C22.0001 6.48033 17.5301 1.99933 12.0001 1.99933V1.99933Z" fill="#353B40"/>
<path d="M12.08 6.704C13.136 6.704 13.9893 7.00267 14.64 7.6C15.2907 8.19733 15.616 8.99733 15.616 10C15.616 11.12 15.2693 11.952 14.576 12.496C13.8827 13.0293 12.944 13.296 11.76 13.296L11.712 14.816H10.448L10.384 12.288H10.848C11.904 12.288 12.7307 12.128 13.328 11.808C13.9253 11.488 14.224 10.8853 14.224 10C14.224 9.36 14.032 8.85333 13.648 8.48C13.264 8.10667 12.7467 7.92 12.096 7.92C11.4347 7.92 10.912 8.10133 10.528 8.464C10.1547 8.816 9.968 9.30133 9.968 9.92H8.592C8.592 9.28 8.736 8.72 9.024 8.24C9.312 7.74933 9.71733 7.37067 10.24 7.104C10.7733 6.83733 11.3867 6.704 12.08 6.704ZM11.072 18.096C10.7947 18.096 10.56 18 10.368 17.808C10.176 17.616 10.08 17.3813 10.08 17.104C10.08 16.8267 10.176 16.592 10.368 16.4C10.56 16.208 10.7947 16.112 11.072 16.112C11.3387 16.112 11.5627 16.208 11.744 16.4C11.936 16.592 12.032 16.8267 12.032 17.104C12.032 17.3813 11.936 17.616 11.744 17.808C11.5627 18 11.3387 18.096 11.072 18.096Z" fill="white"/>
</svg>
