<svg width="46" height="48" viewBox="0 0 46 48" fill="none" xmlns="http://www.w3.org/2000/svg">
<path fill-rule="evenodd" clip-rule="evenodd" d="M32.928 8.82C32.928 6.16 34.998 4 37.5471 4C40.0963 4 42.1663 6.16 42.1663 8.82C42.1663 11.48 40.0963 13.64 37.5471 13.64C34.998 13.64 32.928 11.48 32.928 8.82ZM25.5486 29.5186L31.0878 22.0606L31.0111 22.1006C31.3178 21.6606 31.3753 21.1006 31.1644 20.6006C30.9555 20.1006 30.4936 19.7606 29.9972 19.7206C29.4778 19.6606 28.9622 19.9006 28.6536 20.3406L24.0172 26.6006L18.7061 22.2406C18.3803 21.9806 17.9969 21.8786 17.6136 21.9206C17.2322 21.9806 16.8872 22.1986 16.6553 22.5186L10.9838 30.2206L10.8669 30.4006C10.5411 31.0386 10.6944 31.8586 11.2694 32.3006C11.5378 32.4806 11.8253 32.6006 12.1511 32.6006C12.5938 32.6206 13.0136 32.3786 13.2819 32.0006L18.0928 25.5386L23.5553 29.8206L23.7278 29.9386C24.3411 30.2786 25.1078 30.1206 25.5486 29.5186ZM29.6119 7.5606C29.5353 8.0606 29.4969 8.5606 29.4969 9.0606C29.4969 13.5606 32.9853 17.1986 37.2786 17.1986C37.7578 17.1986 38.2178 17.1406 38.6969 17.0606V33.1986C38.6969 39.9806 34.8636 44.0006 28.3469 44.0006H14.1847C7.6661 44.0006 3.83276 39.9806 3.83276 33.1986V18.4006C3.83276 11.6006 7.6661 7.5606 14.1847 7.5606H29.6119Z" fill="#353B40"/>
<circle cx="37.5" cy="8.5" r="5" fill="#FFE465" stroke="#353B40"/>
</svg>
