<svg width="244" height="228" viewBox="0 0 244 228" fill="none" xmlns="http://www.w3.org/2000/svg">
<g clip-path="url(#clip0_531_6096)">
<path opacity="0.5" d="M97.004 198.764C97.004 198.764 55.4579 201.014 54.3676 212.422C53.2628 223.815 79.022 223.314 94.2711 225.979C109.506 228.645 148.624 229.003 176.927 225.105C193.514 222.826 210.9 218.684 207.12 207.334C202.788 194.321 97.004 198.764 97.004 198.764Z" fill="#343A40"/>
<path d="M149.336 180.462C149.336 180.462 149.569 193.203 152.505 202.662C153.843 206.961 155.573 210.902 158.407 212.006C169.891 216.463 177.029 173.984 177.029 173.984C177.029 173.984 153.668 179.258 149.336 180.462Z" fill="black"/>
<path d="M152.331 202.031C152.331 202.031 155.98 200.168 157.855 201.114C159.599 201.988 160.399 204.826 160.399 204.826C160.399 204.826 161.605 202.289 164.12 202.261C166.621 202.246 168.452 204.095 168.452 204.095C168.452 204.095 165.181 213.554 159.919 212.866C155.456 212.293 152.157 204.152 152.331 202.031Z" fill="#CACACA"/>
<path d="M209.373 163.379C209.373 163.379 192.714 196.8 187.539 205.27C185.184 209.111 182.466 212.178 179.515 212.909C170.066 215.288 170.08 185.923 170.08 185.923C170.08 185.923 205.477 161.172 209.373 163.379Z" fill="black"/>
<path d="M187.873 204.697C187.873 204.697 184.792 202.017 182.742 202.476C180.838 202.906 179.355 205.471 179.355 205.471C179.355 205.471 178.802 202.719 176.375 202.103C173.947 201.487 171.723 202.848 171.723 202.848C171.723 202.848 172.581 212.809 177.843 213.396C182.32 213.898 187.525 206.789 187.873 204.697Z" fill="#CACACA"/>
<path d="M49.7885 159.266C49.7885 159.266 58.6414 193.805 63.4822 203.708C65.6918 208.208 68.3956 211.877 71.5792 212.995C81.7985 216.592 84.8658 184.045 84.8658 184.045C84.8658 184.045 54.3385 157.217 49.7885 159.266Z" fill="black"/>
<path d="M63.1624 203.049C63.1624 203.049 66.8547 200.398 69.0788 201.114C71.143 201.773 72.5095 204.783 72.5095 204.783C72.5095 204.783 73.4108 201.788 76.1582 201.343C78.9202 200.899 81.2461 202.633 81.2461 202.633C81.2461 202.633 79.2546 213.582 73.3672 213.711C68.3665 213.826 63.3368 205.414 63.1624 203.049Z" fill="#CACACA"/>
<path d="M116.658 181.236C116.658 181.236 112.791 195.84 106.933 205.958C104.272 210.559 101.205 214.227 97.8907 215.188C87.3079 218.24 87.5696 183.587 87.5696 183.587C87.5696 183.587 112.311 178.743 116.658 181.236Z" fill="black"/>
<path d="M107.325 205.285C107.325 205.285 103.909 202.203 101.612 202.805C99.4753 203.35 97.8035 206.431 97.8035 206.431C97.8035 206.431 97.2221 203.192 94.5037 202.519C91.7998 201.845 89.2995 203.507 89.2995 203.507C89.2995 203.507 90.1717 215.231 96.0446 215.804C101.031 216.291 106.904 207.778 107.325 205.285Z" fill="#CACACA"/>
<path d="M92.3345 80.1618L92.3356 80.1616C95.7573 79.5702 99.4623 81.4571 101.185 84.7042L101.767 85.8011L102.108 84.6071C103.366 80.1957 107.17 76.7669 111.406 76.18L111.407 76.1798C115.641 75.5796 120.129 77.8486 122.389 81.74L122.886 82.5961L123.28 81.688C125.37 76.8701 128.705 72.3747 133.311 71.0341C135.58 70.3761 138.171 70.8331 140.222 72.1025C142.269 73.369 143.727 75.4095 143.822 77.8821L143.878 79.3568L144.73 78.1517C146.924 75.0464 150.09 72.5729 153.584 72.3429C157.067 72.128 160.76 74.7684 161.108 78.4123L162.073 78.541C163.512 74.7226 167.441 72.1777 171.226 72.528C175.013 72.8784 178.468 76.1226 179.272 80.1536L180.255 80.1375C180.671 77.626 182.475 75.8228 184.766 74.9403C187.063 74.0554 189.79 74.1237 191.951 75.3064C196.346 77.7203 198.746 83.0644 199.931 88.4047L200.142 89.357L200.792 88.6295C204.107 84.9179 209.713 83.4834 213.695 86.0503C215.667 87.3285 216.944 89.7202 217.254 92.222C217.564 94.7237 216.894 97.2233 215.123 98.7526L215.614 99.6034C218.674 98.5399 222.371 99.9495 224.119 102.896C225.857 105.851 225.468 110.071 223.217 112.6L222.948 112.901L223.187 113.227C225.275 116.083 225.72 119.977 224.819 123.528C223.918 127.079 221.695 130.192 218.567 131.534L218.127 131.722L218.296 132.17C219.905 136.423 219.434 141.305 217.498 145.428C215.56 149.552 212.186 152.856 208.061 154.012L207.281 154.231L207.826 154.83C210.089 157.318 210.744 161.338 209.407 164.518C208.072 167.693 204.826 169.805 201.621 169.644L201.141 169.62L201.098 170.1C200.784 173.648 199.504 177.206 196.904 179.175C195.63 180.141 193.963 180.568 192.403 180.399C190.848 180.23 189.434 179.473 188.606 178.11L188.141 177.345L187.733 178.143C185.793 181.941 182.571 185.164 178.708 185.787C174.858 186.409 170.525 183.674 170.054 179.617L169.89 178.204L169.134 179.408C167.964 181.271 166.701 183.176 165.229 184.697C163.76 186.216 162.115 187.315 160.19 187.622C158.247 187.93 156.246 187.182 154.71 185.784C153.174 184.387 152.146 182.378 152.119 180.241L152.098 178.616L151.202 179.972C149.036 183.246 146.793 186.504 143.562 188.097C138.389 190.626 131.381 187.292 129.713 181.401L129.415 180.348L128.814 181.263C126.581 184.662 122.956 187.113 119.174 187.099C115.397 187.086 111.595 184.229 110.899 180.289L110.581 178.486L109.939 180.201C108.648 183.649 105.471 186.192 102.053 186.558C98.6362 186.923 95.0675 185.119 93.1711 182.021L92.7224 181.288L92.307 182.041C90.7025 184.948 87.3574 186.611 84.2785 186.103C81.1985 185.595 78.4825 182.911 77.7662 179.611L77.6613 179.128L77.1771 179.227C76.2726 179.413 75.368 179.595 74.4622 179.777L74.4533 179.779L74.4501 179.779C73.6073 179.949 72.7636 180.119 71.9197 180.291C67.9099 177.768 65.7643 172.167 67.0047 167.33L67.2701 166.295L66.3053 166.754C64.5761 167.578 62.7875 168.382 60.9923 168.835C59.2019 169.286 57.4378 169.379 55.7482 168.81C54.1254 168.261 52.756 166.696 52.1435 164.926C51.5309 163.157 51.7224 161.347 52.9716 160.226L52.5148 159.369C48.7806 160.316 44.491 157.838 43.1988 153.894L43.1986 153.893C41.9036 149.954 43.7964 145.117 47.2973 143.331L46.9936 142.391C45.0565 142.691 43.1246 141.888 41.6246 140.424C40.1248 138.961 39.1015 136.876 38.9781 134.717C38.7435 130.357 41.5742 126.172 45.3043 124.285L45.883 123.992L45.4526 123.507C42.4302 120.099 41.2879 114.876 42.6075 110.364C43.9269 105.867 47.6323 102.27 51.9184 101.31L52.383 101.206L52.3018 100.737C51.3082 94.9994 52.8867 88.8113 56.4427 84.3973C58.0929 82.3639 60.18 80.7004 62.5473 80.231C64.9093 79.7626 67.5632 80.6982 68.7594 82.8234L69.6943 82.5505C69.5447 79.8548 70.8898 77.3015 72.9072 75.625C74.9264 73.947 77.5465 73.2038 79.9074 74.0083L79.9076 74.0084C82.032 74.7308 83.5312 76.4517 84.362 78.5739C85.1941 80.6991 85.3365 83.1853 84.7743 85.3473L85.7095 85.6885C87.0567 82.8661 89.4278 80.6572 92.3345 80.1618Z" fill="#F4F5FF" stroke="black"/>
<path d="M227.879 80.2421C230.234 82.2485 230.597 86.333 228.286 88.3968C231.208 86.7343 235.162 86.6483 237.793 88.7264C240.424 90.8045 241.049 95.1612 238.679 97.5259C241.863 97.225 244.349 101.008 243.477 104.047C242.604 107.085 239.406 109.02 236.223 109.421C238.592 112.115 238.272 116.687 235.54 119.038C232.807 121.388 228.169 121.073 225.785 118.378C225.233 117.762 224.739 117.002 223.939 116.773C223.343 116.601 224.244 110.94 222.108 116.902C221.046 119.869 215.392 117.203 213.167 114.939C210.943 112.674 211.06 108.289 213.894 106.841C211.859 109.278 207.789 109.392 205.187 107.544C202.585 105.695 201.393 102.356 201.48 99.2027C201.582 95.9925 203.326 92.4669 206.495 91.7503C205.361 90.2169 204.213 88.5974 203.922 86.7343C203.457 83.5957 206.233 80.2565 209.446 80.4571C212.179 80.6291 213.72 83.3664 213.909 85.7884C216.729 81.5033 222.369 75.5414 227.879 80.2421Z" fill="#FFE465"/>
<path d="M227.879 80.2419C229.056 81.2308 229.739 82.7356 229.856 84.2547C229.972 85.7596 229.492 87.3933 228.329 88.4395L228.271 88.3536C229.725 87.5223 231.411 87.078 233.097 87.078C234.784 87.078 236.499 87.5797 237.851 88.6115C239.203 89.6577 240.031 91.2628 240.279 92.9253C240.526 94.5878 240.104 96.4222 238.868 97.6834L238.68 97.2821C240.395 97.0814 242.038 98.1133 242.953 99.4605C243.884 100.808 244.305 102.57 243.84 104.219C243.389 105.838 242.27 107.199 240.918 108.145C239.552 109.106 237.967 109.693 236.325 109.937L236.659 109.077C238.156 110.768 238.723 113.118 238.331 115.282C237.982 117.447 236.601 119.582 234.493 120.571C232.414 121.574 229.957 121.574 227.85 120.714C226.788 120.284 225.814 119.582 225.073 118.708C224.724 118.306 224.433 117.934 224.128 117.719C224.055 117.661 223.983 117.619 223.91 117.59L223.808 117.547L223.736 117.518L223.678 117.504C223.561 117.461 223.445 117.404 223.358 117.318C223.111 117.074 223.082 116.916 223.038 116.802C223.009 116.687 222.98 116.601 222.965 116.515C222.936 116.343 222.922 116.2 222.907 116.056C222.863 115.526 222.849 114.967 222.791 114.623C222.791 114.595 222.776 114.566 222.791 114.595C222.805 114.623 222.791 114.638 222.907 114.752C222.922 114.81 223.314 115.01 223.489 114.953C223.576 114.953 223.678 114.91 223.75 114.867C223.779 114.853 223.794 114.838 223.823 114.824C223.867 114.795 223.867 114.81 223.867 114.81C223.881 114.795 223.852 114.838 223.823 114.867C223.736 115.01 223.634 115.239 223.532 115.454C223.343 115.899 223.169 116.372 222.994 116.845L222.863 117.203L222.631 117.69C222.471 117.991 222.18 118.292 221.875 118.507C220.538 119.338 219.229 119.037 218.168 118.794C217.063 118.493 216.075 118.02 215.13 117.475C214.185 116.902 213.298 116.286 212.499 115.44C211.685 114.552 211.161 113.462 210.958 112.33C210.74 111.198 210.783 110.008 211.205 108.891C211.583 107.773 212.441 106.755 213.545 106.182C213.923 105.981 214.389 106.125 214.592 106.497C214.737 106.784 214.694 107.114 214.505 107.343C212.659 109.507 209.591 109.98 207.091 109.249C204.474 108.518 202.599 106.325 201.712 104.004C200.826 101.653 200.666 99.0592 201.393 96.6515C201.756 95.462 202.338 94.3155 203.181 93.3553C204.009 92.395 205.158 91.6641 206.437 91.3918L206.19 92.0224C205.1 90.4889 203.922 88.8408 203.646 86.8344C203.384 84.828 204.3 82.8216 205.826 81.5604C207.295 80.2706 209.65 79.8263 211.365 80.9155C213.066 81.976 213.909 83.9251 214.054 85.8169L213.865 85.7739C215.464 83.4092 217.369 81.1591 219.869 79.6543C221.105 78.9234 222.558 78.4505 224.012 78.5651C225.437 78.6225 226.774 79.3247 227.879 80.2419ZM227.879 80.2419C226.774 79.339 225.436 78.6511 223.983 78.5795C222.544 78.4791 221.119 78.9664 219.898 79.7117C217.441 81.2165 215.581 83.4808 214.025 85.8455C213.996 85.8885 213.923 85.9029 213.88 85.8742C213.851 85.8599 213.836 85.8312 213.836 85.8025C213.676 83.9824 212.819 82.0907 211.205 81.1305C209.577 80.1846 207.44 80.6432 206.132 81.89C204.765 83.0939 203.995 84.9713 204.285 86.7198C204.591 88.4969 205.725 90.0303 206.858 91.5208C206.989 91.6928 206.96 91.9508 206.771 92.0797C206.728 92.1084 206.67 92.1371 206.626 92.1514H206.611C204.402 92.6673 202.948 94.7597 202.381 96.9095C201.8 99.0879 202.018 101.467 202.875 103.516C203.733 105.566 205.39 107.3 207.484 107.844C209.548 108.432 212.004 107.945 213.298 106.354L214.258 107.515C212.775 108.274 212.164 110.252 212.557 111.986C212.717 112.86 213.153 113.677 213.72 114.294C214.345 114.939 215.159 115.512 216.002 115.999C216.845 116.486 217.732 116.888 218.633 117.146C219.505 117.404 220.479 117.461 220.93 117.131C221.046 117.045 221.134 116.959 221.206 116.83C221.235 116.759 221.279 116.687 221.323 116.63L221.453 116.271C221.642 115.784 221.817 115.297 222.049 114.795C222.166 114.537 222.282 114.294 222.456 114.007C222.515 113.921 222.544 113.864 222.645 113.749C222.689 113.706 222.718 113.663 222.834 113.577L222.98 113.477C223.067 113.434 223.212 113.376 223.329 113.362C223.561 113.29 224.041 113.52 224.085 113.634C224.244 113.806 224.259 113.878 224.303 113.964C224.361 114.122 224.39 114.222 224.404 114.308C224.506 114.967 224.492 115.44 224.535 115.927L224.564 116.243C224.535 116.3 224.695 116.458 224.448 116.142C224.39 116.085 224.303 116.042 224.215 116.013C224.172 115.999 224.244 116.028 224.244 116.028L224.375 116.071L224.622 116.185C224.782 116.271 224.942 116.357 225.073 116.458C225.611 116.873 225.945 117.332 226.265 117.704C226.847 118.407 227.588 118.951 228.446 119.31C230.146 120.041 232.196 120.055 233.868 119.267C237.357 117.819 238.345 112.631 235.859 109.736L235.845 109.722C235.656 109.507 235.685 109.177 235.903 108.991C235.99 108.919 236.077 108.876 236.179 108.876C237.676 108.719 239.145 108.203 240.395 107.386C241.645 106.569 242.663 105.394 243.099 103.989C243.535 102.613 243.23 101.037 242.415 99.7901C241.63 98.5433 240.22 97.6117 238.709 97.7407C238.578 97.755 238.461 97.669 238.447 97.54C238.432 97.4684 238.476 97.3967 238.52 97.3394C239.683 96.2359 240.133 94.5448 239.944 92.954C239.77 91.3488 238.97 89.7867 237.691 88.7835C236.397 87.766 234.74 87.2644 233.083 87.2357C231.426 87.207 229.754 87.6226 228.315 88.4395C228.286 88.4539 228.257 88.4395 228.242 88.4252C228.228 88.3965 228.228 88.3679 228.257 88.3536C229.405 87.3504 229.914 85.7596 229.812 84.2547C229.696 82.7499 229.042 81.2451 227.879 80.2419Z" fill="black"/>
<path d="M75.5332 159.94C77.234 159.524 78.3678 158.521 80.2431 159.295C82.1474 160.083 83.4848 161.932 84.9239 163.322C85.0402 163.437 85.2728 163.351 85.2147 163.179C84.2988 160.699 82.598 158.191 79.7779 157.647C78.2515 157.36 75.2133 157.69 75.3442 159.782C75.3296 159.868 75.4314 159.968 75.5332 159.94Z" fill="black"/>
<path d="M97.8326 163.265C98.3995 161.788 98.9519 160.04 100.478 159.237C102.135 158.363 104.258 159.065 105.595 160.198C105.784 160.355 106.06 160.241 106.017 159.983C105.464 157.288 102.179 155.898 99.6642 156.959C97.3383 157.933 95.5213 161.258 97.5564 163.322C97.6436 163.422 97.7745 163.379 97.8326 163.265Z" fill="black"/>
<path d="M99.4607 140.95C100.624 139.632 102.731 139.259 104.287 140.133C106.075 141.137 106.642 143.387 107.761 144.935C108.125 145.422 108.91 145.393 108.953 144.691C109.113 141.782 107.049 138.485 104.142 137.683C101.961 137.081 98.9665 138.256 99.1554 140.821C99.17 140.936 99.3589 141.065 99.4607 140.95Z" fill="black"/>
<path d="M121.571 157.174C122.298 155.683 123.272 154.594 124.726 153.734C126.165 152.889 129.319 151.169 130.439 153.218C130.642 153.591 131.209 153.476 131.224 153.061C131.427 149.592 127.139 150.61 125.234 151.527C123.17 152.502 120.016 154.465 121.237 157.159C121.295 157.274 121.513 157.303 121.571 157.174Z" fill="black"/>
<path d="M121.6 135.031C121.935 133.011 123.955 131.334 126.048 132.294C126.95 132.71 127.604 133.398 128.273 134.1C128.767 134.616 129.232 135.261 129.973 135.404C130.148 135.433 130.279 135.404 130.38 135.261C131.136 134.129 129.886 132.409 129.145 131.563C128.025 130.288 126.354 129.442 124.624 129.457C121.935 129.485 118.766 132.652 120.917 135.16C121.106 135.39 121.557 135.332 121.6 135.031Z" fill="black"/>
<path d="M116.236 113.606C116.948 111.814 117.879 109.851 119.74 108.991C121.775 108.06 123.795 109.077 125.787 109.521C125.99 109.564 126.15 109.421 126.107 109.22C124.726 103.072 112.994 107.329 115.713 113.577C115.815 113.749 116.149 113.807 116.236 113.606Z" fill="black"/>
<path d="M133.811 96.0641C135.439 94.6023 136.195 93.4271 138.899 93.9717C140.454 94.287 141.908 95.3475 143.173 96.2361C143.42 96.4081 143.856 96.2361 143.812 95.9065C143.158 91.0481 148.915 89.0417 151.779 93.2121C151.895 93.3841 152.2 93.3268 152.128 93.0832C150.325 86.7343 141.283 89.8299 142.955 95.9638C143.187 95.8348 143.435 95.7202 143.667 95.5912C141.85 93.2551 139.306 90.9191 136.05 91.8793C134.102 92.4526 132.532 94.029 133.491 96.0068C133.564 96.1071 133.724 96.1358 133.811 96.0641Z" fill="black"/>
<path d="M161.068 120.184C162.507 120.327 163.99 120.37 165.312 121.03C166.664 121.718 167.275 122.792 168.263 123.839C168.365 123.953 168.612 123.968 168.685 123.81C170.269 120.241 163.016 116.472 160.893 119.883C160.82 120.026 160.937 120.17 161.068 120.184Z" fill="black"/>
<path d="M166.417 106.325C169.136 104.763 172.741 102.341 175.27 105.709C175.459 105.953 175.924 105.967 175.924 105.58C175.881 103.516 173.918 102.399 171.97 102.442C169.557 102.499 167.537 104.276 166.156 106.053C166.025 106.196 166.272 106.411 166.417 106.325Z" fill="black"/>
<path d="M140.556 118.407C141.894 117.647 142.475 116.343 144.176 116.014C146.066 115.655 147.97 116.429 149.874 116.243C150.165 116.214 150.209 115.813 150.02 115.641C148.144 113.878 145.237 113.119 142.751 113.964C141.109 114.523 138.884 116.286 139.946 118.192C140.062 118.393 140.353 118.522 140.556 118.407Z" fill="black"/>
<path d="M156.881 154.279C157.695 153.863 157.666 153.089 158.233 152.416C160.341 149.893 163.51 151.556 165.778 153.018C166.126 153.247 166.635 153.018 166.621 152.573C166.374 146.454 173.54 147.213 175.881 150.968C176.113 151.341 176.767 151.183 176.622 150.71C175.822 148.016 173.249 146.239 170.342 146.683C167.348 147.142 165.996 149.707 165.487 152.373C165.836 152.344 166.185 152.33 166.533 152.301C165.051 150.209 162.725 148.202 159.934 148.517C157.506 148.79 155.355 150.782 155.616 153.232C155.66 153.648 155.936 154.121 156.387 154.236C156.387 154.193 156.765 154.336 156.881 154.279Z" fill="black"/>
<path d="M190.665 126.275C192.685 125.472 194.938 125.085 196.988 126.089C198.456 126.805 199.169 127.995 199.983 129.313C201.087 131.09 202.977 130.732 202.527 128.439C201.436 122.878 193.339 120.958 189.967 125.558C189.661 125.988 190.272 126.433 190.665 126.275Z" fill="black"/>
<path d="M184.864 94.287C185.606 93.0259 187.568 92.1803 188.935 91.8937C190.665 91.521 192.264 92.037 193.804 92.7679C194.153 92.9399 194.56 92.6389 194.342 92.252C193.267 90.3602 190.941 89.8873 188.906 90.2455C186.478 90.6612 185.388 92.0226 184.603 94.1724C184.574 94.3157 184.792 94.416 184.864 94.287Z" fill="black"/>
<path d="M185.882 161.645C185.984 161.645 185.969 161.487 185.882 161.487C185.78 161.487 185.795 161.645 185.882 161.645Z" fill="black"/>
<path d="M186.478 161.659C189.036 160.785 191.639 161.315 193.819 162.863C193.95 162.949 194.095 162.763 193.979 162.663C191.9 160.757 188.993 160.384 186.362 161.373C186.187 161.43 186.318 161.717 186.478 161.659Z" fill="black"/>
<path d="M178.57 169.527C178.919 168.08 180.067 166.475 181.143 165.457C182.422 164.239 183.498 163.293 185.344 163.007C185.46 162.992 185.417 162.82 185.315 162.82C183.6 162.806 181.463 163.279 180.198 164.497C178.701 165.945 178.279 167.478 178.337 169.499C178.352 169.599 178.541 169.656 178.57 169.527Z" fill="black"/>
<path d="M127.11 167.922C127.575 166.274 131.674 165.787 133.026 166.145C135.643 166.847 136.428 169.284 138.158 170.975C138.434 171.247 139.001 171.133 138.972 170.688C138.783 167.621 135.614 164.081 132.59 163.437C131.209 163.15 129.697 163.365 128.491 164.081C126.95 164.999 127.255 166.36 126.993 167.894C126.979 167.951 127.081 167.994 127.11 167.922Z" fill="black"/>
<g clip-path="url(#clip1_531_6096)">
<path d="M26 60.8709C26 60.8709 26 71.3124 34.8604 69.8456C43.7208 68.3788 42.7323 58.9988 40.3707 56.2582C38.0092 53.5175 28.032 51.5875 26 60.8709Z" fill="#282B2D"/>
<path d="M34.3478 58.69C34.3478 58.69 34.3478 62.4922 37.5698 61.9518C40.8101 61.4114 40.4439 57.9952 39.5835 56.9916C38.7231 56.0073 35.0801 55.3125 34.3478 58.69Z" fill="white"/>
<path d="M28.3799 65.5995C28.3799 65.5995 28.3799 67.6261 30.1007 67.3366C31.8215 67.0471 31.6385 65.2328 31.1808 64.6924C30.7231 64.1713 28.7826 63.8046 28.3799 65.5995Z" fill="white"/>
</g>
<path d="M45.6014 21.1942C45.6014 21.1942 14.987 19.1877 7.80578 26.6258C0.639143 34.0639 -1.11981 46.3173 9.63741 44.9845C20.4092 43.666 44.1332 26.8121 45.6014 21.1942Z" fill="#FFE465"/>
<path opacity="0.8" d="M38.0277 25.1926C38.0277 25.1926 14.7979 27.6003 9.89899 34.4508C4.98555 41.3012 11.0183 38.4206 19.2898 36.7152C27.5466 35.024 38.0277 25.1926 38.0277 25.1926Z" fill="black"/>
<path d="M33.3124 45.1958L33.3128 45.1938C34.6527 38.7967 38.0212 33.6277 41.1136 30.0242C42.6539 28.2294 44.1076 26.8441 45.1703 25.9121C45.7011 25.4467 46.1325 25.096 46.4259 24.8654C46.5657 24.7556 46.674 24.6731 46.7467 24.6186C58.7281 18.4702 72.456 18.1332 84.3545 21.7498C96.3335 25.3908 106.187 32.9486 110.544 42.2233L110.544 42.2238C114.963 51.6231 115.727 65.5251 113.864 79.7363C112.006 93.9007 107.589 107.99 102.017 117.618C96.6152 126.954 86.6305 133.518 74.9195 136.865C63.2203 140.208 50.0076 140.272 38.4413 136.811C21.5231 131.747 13.6906 121.188 10.6113 110.832C9.05857 105.61 8.70662 100.405 9.05706 95.9378C9.41016 91.4368 10.4641 87.8271 11.5955 85.7572C14.8593 79.7908 18.0778 74.8456 21.0617 70.2609C22.3321 68.309 23.5599 66.4225 24.7306 64.5504C28.6162 58.3364 31.8001 52.3793 33.3124 45.1958Z" fill="#F4F5FF" stroke="black" stroke-width="4"/>
<mask id="path-36-inside-1_531_6096" fill="white">
<path d="M30.4686 66.8973C29.1166 70.0073 30.3959 73.6905 33.5358 75.1666C38.2312 77.3736 41.7636 72.9595 43.7116 69.3337C44.8164 67.2843 41.3857 65.1489 40.3681 67.2843C39.3651 69.391 37.5916 73.4038 34.5534 73.0025C32.0821 72.6872 31.6024 69.1904 31.6606 67.2556C31.7042 66.7253 30.7448 66.2954 30.4686 66.8973Z"/>
</mask>
<path d="M30.4686 66.8973C29.1166 70.0073 30.3959 73.6905 33.5358 75.1666C38.2312 77.3736 41.7636 72.9595 43.7116 69.3337C44.8164 67.2843 41.3857 65.1489 40.3681 67.2843C39.3651 69.391 37.5916 73.4038 34.5534 73.0025C32.0821 72.6872 31.6024 69.1904 31.6606 67.2556C31.7042 66.7253 30.7448 66.2954 30.4686 66.8973Z" fill="#282B2D"/>
<path d="M30.4686 66.8973L26.833 65.2291L26.8162 65.2657L26.8002 65.3026L30.4686 66.8973ZM33.5358 75.1666L31.834 78.7865L31.8342 78.7866L33.5358 75.1666ZM43.7116 69.3337L40.1906 67.4356L40.1879 67.4406L43.7116 69.3337ZM40.3681 67.2843L36.7571 65.5635L36.7566 65.5648L40.3681 67.2843ZM34.5534 73.0025L35.0772 69.037L35.0684 69.0358L35.0596 69.0347L34.5534 73.0025ZM31.6606 67.2556L27.674 66.9277L27.6655 67.0314L27.6624 67.1354L31.6606 67.2556ZM26.8002 65.3026C24.6211 70.3153 26.657 76.3527 31.834 78.7865L35.2376 71.5467C34.1347 71.0282 33.6121 69.6992 34.1369 68.492L26.8002 65.3026ZM31.8342 78.7866C35.8105 80.6556 39.4335 79.5963 42.0489 77.6413C44.454 75.8435 46.1585 73.231 47.2353 71.2267L40.1879 67.4406C39.3167 69.0622 38.281 70.4697 37.2591 71.2337C36.788 71.5858 36.4418 71.7086 36.2135 71.7444C36.0279 71.7735 35.7324 71.7792 35.2374 71.5466L31.8342 78.7866ZM47.2325 71.2318C49.1775 67.6238 46.7971 64.4852 44.938 63.3367C43.9108 62.7021 42.4713 62.2178 40.8736 62.4609C39.0813 62.7336 37.5675 63.863 36.7571 65.5635L43.9791 69.005C43.8575 69.2602 43.6299 69.5893 43.2514 69.8736C42.873 70.1577 42.4566 70.3121 42.0768 70.3699C41.374 70.4768 40.9139 70.2542 40.7335 70.1427C40.5372 70.0215 40.2653 69.7859 40.0849 69.3352C39.8644 68.7847 39.857 68.0544 40.1906 67.4356L47.2325 71.2318ZM36.7566 65.5648C36.1895 66.7557 35.69 67.8285 35.0696 68.6242C34.4191 69.4584 34.4612 68.9556 35.0772 69.037L34.0296 76.9681C37.6837 77.4507 40.1317 75.1422 41.3783 73.5436C42.6549 71.9065 43.5436 69.9195 43.9797 69.0038L36.7566 65.5648ZM35.0596 69.0347C35.2134 69.0543 35.3887 69.1053 35.5606 69.1946C35.7285 69.2817 35.8461 69.3808 35.9173 69.454C36.0401 69.5801 36.003 69.6034 35.9162 69.3654C35.8349 69.1427 35.7588 68.8233 35.7098 68.4306C35.6618 68.0455 35.6499 67.6705 35.6588 67.3758L27.6624 67.1354C27.6244 68.3979 27.7445 70.3088 28.4007 72.1073C29.0406 73.8613 30.6339 76.5349 34.0472 76.9704L35.0596 69.0347ZM35.6471 67.5835C35.7647 66.154 35.1832 65.0232 34.601 64.3265C34.025 63.637 33.2966 63.1657 32.5605 62.896C31.835 62.6302 30.8136 62.4593 29.6938 62.7744C28.4456 63.1257 27.3955 64.0033 26.833 65.2291L34.1041 68.5655C33.6797 69.4904 32.8531 70.196 31.8611 70.4752C30.9976 70.7182 30.2651 70.575 29.8084 70.4078C29.3413 70.2366 28.8619 69.9346 28.4621 69.4561C28.0562 68.9703 27.5783 68.0921 27.674 66.9277L35.6471 67.5835Z" fill="black" mask="url(#path-36-inside-1_531_6096)"/>
<mask id="path-38-inside-2_531_6096" fill="white">
<path d="M67.5348 73.4997C66.1829 76.6097 67.4622 80.2929 70.6021 81.769C75.2975 83.9761 78.8299 79.562 80.7779 75.9361C81.8826 73.8867 78.452 71.7513 77.4344 73.8867C76.4314 75.9934 74.6579 80.0062 71.6197 79.605C69.1484 79.2897 68.6687 75.7928 68.7269 73.858C68.7705 73.3278 67.811 72.8978 67.5348 73.4997Z"/>
</mask>
<path d="M67.5348 73.4997C66.1829 76.6097 67.4622 80.2929 70.6021 81.769C75.2975 83.9761 78.8299 79.562 80.7779 75.9361C81.8826 73.8867 78.452 71.7513 77.4344 73.8867C76.4314 75.9934 74.6579 80.0062 71.6197 79.605C69.1484 79.2897 68.6687 75.7928 68.7269 73.858C68.7705 73.3278 67.811 72.8978 67.5348 73.4997Z" fill="#282B2D"/>
<path d="M67.5348 73.4997L63.8993 71.8315L63.8825 71.8681L63.8665 71.9051L67.5348 73.4997ZM70.6021 81.769L68.9003 85.3889L68.9005 85.389L70.6021 81.769ZM80.7779 75.9361L77.2569 74.038L77.2542 74.0431L80.7779 75.9361ZM77.4344 73.8867L73.8234 72.166L73.8228 72.1672L77.4344 73.8867ZM71.6197 79.605L72.1434 75.6394L72.1347 75.6382L72.1259 75.6371L71.6197 79.605ZM68.7269 73.858L64.7403 73.5302L64.7318 73.6339L64.7287 73.7379L68.7269 73.858ZM63.8665 71.9051C61.6874 76.9177 63.7233 82.9551 68.9003 85.3889L72.3039 78.1491C71.201 77.6306 70.6784 76.3017 71.2032 75.0944L63.8665 71.9051ZM68.9005 85.389C72.8768 87.2581 76.4998 86.1987 79.1152 84.2437C81.5203 82.4459 83.2248 79.8334 84.3015 77.8291L77.2542 74.0431C76.383 75.6646 75.3473 77.0722 74.3254 77.8361C73.8542 78.1883 73.5081 78.3111 73.2798 78.3468C73.0942 78.3759 72.7987 78.3816 72.3037 78.149L68.9005 85.389ZM84.2988 77.8342C86.2438 74.2262 83.8634 71.0876 82.0043 69.9391C80.9771 69.3045 79.5376 68.8203 77.9398 69.0633C76.1475 69.336 74.6338 70.4654 73.8234 72.166L81.0454 75.6074C80.9238 75.8626 80.6962 76.1917 80.3176 76.476C79.9393 76.7602 79.5229 76.9145 79.1431 76.9723C78.4403 77.0793 77.9802 76.8566 77.7998 76.7451C77.6035 76.6239 77.3316 76.3883 77.1511 75.9376C76.9307 75.3871 76.9233 74.6568 77.2569 74.038L84.2988 77.8342ZM73.8228 72.1672C73.2558 73.3581 72.7563 74.431 72.1359 75.2266C71.4854 76.0608 71.5275 75.558 72.1434 75.6394L71.0959 83.5705C74.75 84.0532 77.198 81.7446 78.4445 80.146C79.7212 78.5089 80.6099 76.522 81.0459 75.6062L73.8228 72.1672ZM72.1259 75.6371C72.2797 75.6567 72.455 75.7077 72.6269 75.797C72.7948 75.8841 72.9124 75.9832 72.9836 76.0564C73.1064 76.1826 73.0693 76.2058 72.9825 75.9678C72.9012 75.7451 72.825 75.4257 72.7761 75.033C72.7281 74.6479 72.7162 74.273 72.725 73.9782L64.7287 73.7379C64.6907 75.0003 64.8108 76.9112 65.467 78.7098C66.1069 80.4637 67.7002 83.1373 71.1134 83.5728L72.1259 75.6371ZM72.7134 74.1859C72.831 72.7564 72.2495 71.6256 71.6673 70.9289C71.0912 70.2394 70.3629 69.7681 69.6268 69.4985C68.9013 69.2326 67.8798 69.0617 66.7601 69.3768C65.5119 69.7281 64.4618 70.6057 63.8993 71.8315L71.1704 75.1679C70.746 76.0928 69.9194 76.7985 68.9274 77.0776C68.0639 77.3207 67.3313 77.1775 66.8747 77.0102C66.4076 76.839 65.9282 76.537 65.5283 76.0585C65.1225 75.5728 64.6446 74.6945 64.7403 73.5302L72.7134 74.1859Z" fill="black" mask="url(#path-38-inside-2_531_6096)"/>
<path d="M55.8784 94.8065C55.8783 94.8065 55.879 94.8051 55.8808 94.8024C55.8793 94.8052 55.8784 94.8065 55.8784 94.8065ZM58.8576 92.431C58.8593 92.4287 58.8603 92.4276 58.8603 92.4276C58.8604 92.4276 58.8595 92.4288 58.8576 92.431ZM55.6648 93.4705C55.6562 93.4673 55.6522 93.4652 55.6523 93.4649C55.6525 93.4646 55.6568 93.4662 55.6648 93.4705Z" fill="#282B2D" stroke="black" stroke-width="4"/>
<mask id="path-41-inside-3_531_6096" fill="white">
<path d="M32.1985 88.9535C32.1985 88.9535 34.1173 92.7514 35.571 91.4472C37.0392 90.1574 35.1203 86.8325 34.1464 86.0299C33.187 85.256 30.8901 85.3993 32.1985 88.9535Z"/>
</mask>
<path d="M32.1985 88.9535C32.1985 88.9535 34.1173 92.7514 35.571 91.4472C37.0392 90.1574 35.1203 86.8325 34.1464 86.0299C33.187 85.256 30.8901 85.3993 32.1985 88.9535Z" fill="#282B2D"/>
<path d="M32.1985 88.9535L28.4447 90.3353L28.5243 90.5516L28.6283 90.7574L32.1985 88.9535ZM35.571 91.4472L32.931 88.4421L32.9153 88.4559L32.8998 88.4698L35.571 91.4472ZM34.1464 86.0299L36.6901 82.9429L36.674 82.9296L36.6577 82.9165L34.1464 86.0299ZM32.1985 88.9535C28.6283 90.7574 28.6287 90.7582 28.6291 90.759C28.6292 90.7592 28.6296 90.7601 28.6299 90.7606C28.6305 90.7618 28.6311 90.763 28.6318 90.7643C28.6331 90.7668 28.6345 90.7696 28.636 90.7727C28.6391 90.7787 28.6427 90.7858 28.6468 90.7937C28.655 90.8097 28.6652 90.8293 28.6773 90.8524C28.7015 90.8986 28.7336 90.9589 28.7729 91.031C28.8512 91.1744 28.9606 91.3686 29.0964 91.5936C29.357 92.0252 29.7632 92.6516 30.2783 93.2641C30.7265 93.7969 31.5738 94.7094 32.7916 95.2565C33.4579 95.5558 34.3742 95.8078 35.4438 95.6908C36.5565 95.569 37.5085 95.0828 38.2422 94.4246L32.8998 88.4698C33.0717 88.3157 33.3043 88.1483 33.602 88.0094C33.9034 87.8688 34.2325 87.7756 34.5736 87.7382C35.26 87.6631 35.788 87.8324 36.0699 87.9591C36.3394 88.0801 36.4765 88.2014 36.4838 88.2077C36.5009 88.2225 36.4713 88.1985 36.4008 88.1148C36.2545 87.9409 36.0902 87.6993 35.9455 87.4596C35.8787 87.3489 35.8269 87.2566 35.7945 87.1973C35.7786 87.1681 35.768 87.1481 35.7634 87.1393C35.7611 87.1349 35.7603 87.1334 35.7612 87.135C35.7616 87.1359 35.7624 87.1375 35.7637 87.1399C35.7643 87.1411 35.765 87.1425 35.7658 87.1442C35.7662 87.145 35.7667 87.1459 35.7672 87.1468C35.7674 87.1472 35.7678 87.148 35.7679 87.1482C35.7683 87.149 35.7686 87.1497 32.1985 88.9535ZM38.211 94.4523C39.6507 93.1875 40.0751 91.5332 40.1038 90.2593C40.131 89.0476 39.8233 87.9446 39.5106 87.127C39.1843 86.2738 38.7567 85.4838 38.3234 84.8281C37.9257 84.2264 37.3683 83.5018 36.6901 82.9429L31.6027 89.1169C31.4755 89.0121 31.4383 88.9578 31.4829 89.011C31.5159 89.0503 31.5751 89.1268 31.6493 89.239C31.8038 89.4728 31.9468 89.7451 32.0384 89.9847C32.0824 90.0996 32.1025 90.1758 32.1099 90.2105C32.1181 90.2491 32.1031 90.2006 32.1058 90.0797C32.1085 89.9575 32.1309 89.7085 32.256 89.3949C32.3888 89.0619 32.6126 88.7219 32.931 88.4421L38.211 94.4523ZM36.6577 82.9165C35.8105 82.2331 34.7759 81.8153 33.7332 81.6893C32.6865 81.5628 31.2647 81.6978 29.9794 82.6264C27.0439 84.7474 27.7026 88.3192 28.4447 90.3353L35.9522 87.5718C35.7383 86.9906 35.8277 86.9457 35.799 87.2567C35.7609 87.6681 35.5126 88.4982 34.6646 89.1109C33.91 89.6562 33.1605 89.6783 32.7733 89.6315C32.3902 89.5852 32.0026 89.4398 31.635 89.1433L36.6577 82.9165Z" fill="black" mask="url(#path-41-inside-3_531_6096)"/>
<path d="M37.1557 104.661C37.1997 104.661 37.1997 104.589 37.1557 104.589C37.1117 104.589 37.1117 104.661 37.1557 104.661Z" fill="#282B2D" stroke="black" stroke-width="4"/>
<path d="M44.6274 110.178C43.5517 109.519 42.6213 108.459 42.1997 107.269C42.0866 106.948 42.074 106.578 42.0615 106.211C42.0467 105.777 42.0321 105.347 41.8509 105.005C41.845 104.993 41.8388 104.981 41.8321 104.968C41.7066 104.718 41.4408 104.189 41.1095 104.217L44.6274 110.178Z" fill="#302218" stroke="#373218" stroke-width="4"/>
<path opacity="0.8" d="M76.8895 89.668C76.2666 89.111 76.156 88.7736 76.1343 88.6667C76.2076 88.5856 76.4818 88.3404 77.3331 88.1734C78.4231 87.9596 79.9773 88.0085 81.6923 88.4751C83.3888 88.9406 84.7349 89.6861 85.5506 90.4194C86.1652 90.9719 86.2833 91.3109 86.3085 91.4239C86.2287 91.5096 85.9491 91.7484 85.1157 91.9121C84.0274 92.1259 82.4768 92.0768 80.7697 91.6103C79.0612 91.1435 77.7074 90.3995 76.8895 89.668Z" fill="#DAB2C8" stroke="black" stroke-width="4"/>
<path opacity="0.8" d="M22.9647 79.5636L22.9642 79.5635C21.1935 79.4375 19.7216 78.9678 18.7758 78.4059C18.0489 77.9741 17.8704 77.6563 17.8262 77.5503C17.8859 77.4529 18.1106 77.1666 18.8949 76.8458C19.9192 76.4268 21.4489 76.1758 23.214 76.3014C24.9773 76.4342 26.4514 76.9068 27.4021 77.4707C28.1212 77.8973 28.3063 78.2106 28.3541 78.3182C28.2913 78.4187 28.0629 78.7022 27.2874 79.0194C26.2624 79.4387 24.7313 79.6898 22.9647 79.5636Z" fill="#DAB2C8" stroke="black" stroke-width="4"/>
<path d="M113.692 38.8076C113.692 38.8076 141.515 51.5769 144.175 61.4943C146.836 71.4261 142.387 82.9916 133.607 76.7144C124.798 70.4515 112.223 44.4112 113.692 38.8076Z" fill="#FFE465"/>
<path opacity="0.8" d="M118.358 45.9017C118.358 45.9017 137.532 59.0437 138.491 67.3703C139.451 75.6969 135.57 70.3226 129.159 64.9053C122.763 59.4879 118.358 45.9017 118.358 45.9017Z" fill="#050505"/>
<path d="M42.0253 47.0482C44.8019 44.4685 46.648 40.9716 48.4506 37.5464C47.2586 42.0035 51.6923 46.4463 56.0533 46.389C60.4144 46.3316 64.2085 43.1357 66.9268 39.5098C64.4992 43.2217 67.174 48.8396 71.2007 50.2871C75.2419 51.7203 79.7192 49.9718 83.1499 47.2918C82.1033 51.9353 82.0742 56.9943 83.9785 61.3224C85.8828 65.6505 89.9967 69.0471 94.4886 69.0327C98.9805 69.0184 103.385 64.9626 103.269 60.1759C103.123 65.6648 103.574 72.3003 108.139 74.8943C111.511 76.8148 115.916 75.4103 118.591 72.5153C121.265 69.6203 122.53 65.5645 123.271 61.5804C124.231 56.378 123.475 49.4559 118.663 48.0228C120.364 44.5259 120.204 40.0831 118.256 36.7152C116.308 33.3616 112.645 31.2119 108.938 31.2406C108.691 23.0573 100.129 16.4218 92.7151 18.6861C91.8865 14.6877 89.895 10.7322 86.537 8.72575C83.1644 6.71934 78.3092 7.32126 76.1868 10.7465C73.5265 7.96618 69.8051 5.90244 66.1419 6.67634C62.4786 7.45024 59.5712 12.022 61.3011 15.5475C58.9898 12.1223 54.5706 10.4742 50.7474 11.6064C46.9242 12.7386 43.9442 16.5651 43.6244 20.7642C39.5977 20.8072 35.2657 20.9505 32.0095 23.4729C28.8695 25.8949 27.6048 31.2406 30.5413 34.3505C23.2293 32.946 24.1015 41.3729 26.9652 45.3571C31.021 51.018 36.7339 51.9782 42.0253 47.0482Z" fill="#FFE465"/>
<path d="M42.0253 47.0482C44.8455 44.3825 46.648 40.9143 48.4215 37.5321C48.436 37.5178 48.4506 37.5034 48.4651 37.5178C48.4796 37.5321 48.4796 37.5464 48.4796 37.5607C47.8982 39.7105 48.7122 42.0178 50.195 43.623C51.6632 45.2424 53.8146 46.346 56.0242 46.3316C58.2484 46.303 60.3853 45.4001 62.1733 44.1246C63.9759 42.8491 65.5022 41.2153 66.8105 39.4525C66.8541 39.4095 66.9123 39.3952 66.9704 39.4238C67.0141 39.4525 67.0286 39.5242 66.9995 39.5815C65.822 41.3729 65.8947 43.7233 66.7233 45.6581C67.5519 47.5928 69.0928 49.2983 71.0698 50.0578C73.0614 50.8174 75.3146 50.7457 77.3497 50.1152C79.3994 49.4989 81.2892 48.4097 82.9464 47.0769C83.0627 46.9765 83.2371 47.0052 83.3389 47.1199C83.397 47.1915 83.4115 47.2775 83.397 47.3492C82.6702 50.7027 82.4812 54.1996 83.1499 57.5532C83.804 60.8924 85.4903 64.0454 88.136 66.1808C90.709 68.3162 94.4159 69.305 97.4832 67.8862C100.521 66.5677 102.775 63.4435 102.644 60.2045H103.836C103.807 62.4832 103.85 64.762 104.243 66.969C104.606 69.1617 105.333 71.3258 106.758 72.9023C108.168 74.493 110.276 75.3099 112.398 74.9947C114.52 74.7367 116.526 73.6045 117.98 72.0424C120.931 68.8034 122.108 64.1744 122.69 59.7889C122.908 57.5819 122.821 55.3318 122.21 53.2538C121.629 51.19 120.35 49.3412 118.402 48.811C117.965 48.682 117.704 48.2377 117.835 47.8078C117.849 47.7648 117.864 47.7218 117.878 47.6931L117.893 47.6645C119.419 44.4542 119.303 40.47 117.631 37.3601C115.959 34.2502 112.5 32.0288 108.938 32.0574C108.502 32.0574 108.139 31.7135 108.124 31.2835C108.022 27.6577 106.103 24.1465 103.225 21.8391C100.391 19.5174 96.4511 18.3279 92.9331 19.4027C92.5407 19.503 92.1336 19.2881 92.0028 18.9011L91.9883 18.8295C91.6103 16.9807 90.9852 15.1606 90.0694 13.5268C89.1681 11.893 87.9325 10.4312 86.3771 9.42799C84.8652 8.43912 82.9464 8.03784 81.1438 8.2958C79.3412 8.53944 77.6404 9.51398 76.681 11.0475C76.5066 11.3198 76.1577 11.4057 75.8815 11.2481C75.8379 11.2194 75.7943 11.1908 75.7507 11.1478C74.5005 9.81494 73.0177 8.66842 71.3751 7.90885C69.7324 7.13495 67.8863 6.80533 66.1418 7.19228C64.441 7.57923 62.9583 8.82607 62.0715 10.3595C61.1703 11.8787 60.8941 13.7991 61.6645 15.3756C61.7663 15.5762 61.679 15.8198 61.4755 15.9202C61.2866 16.0205 61.054 15.9488 60.9377 15.7769C58.8298 12.5379 54.4543 10.7752 50.6747 11.9647C46.9097 13.1542 44.1768 16.8804 43.8424 20.7785C43.8279 20.8932 43.7261 20.9792 43.6098 20.9935C41.5747 21.0079 39.525 21.0365 37.5189 21.3661C35.5274 21.6958 33.5649 22.398 31.9804 23.6449C30.4104 24.8917 29.4074 26.7691 29.073 28.7182C28.7241 30.6673 29.1748 32.8027 30.5703 34.2788C30.6139 34.3218 30.5994 34.3792 30.5703 34.4221C30.5412 34.4508 30.5122 34.4508 30.4831 34.4508C29.1457 34.2215 27.663 34.2072 26.5291 34.9811C25.4243 35.798 24.9882 37.2168 24.93 38.564C24.8719 41.2869 25.8313 44.0386 27.6048 46.1453C29.3056 48.2664 31.7333 50.0435 34.5534 50.2011C37.3881 50.3731 40.0192 48.897 42.0253 47.0482ZM42.0253 47.0482C40.0192 48.9113 37.4026 50.4018 34.5679 50.2298C31.7333 50.0865 29.262 48.3094 27.5467 46.1883C25.7586 44.0673 24.7556 41.3013 24.7992 38.5353C24.8428 37.1738 25.2789 35.6977 26.4419 34.8234C27.6484 33.9922 29.1748 34.0065 30.5412 34.2358L30.454 34.3935C29.0003 32.8887 28.5206 30.6673 28.8695 28.6609C29.2039 26.6545 30.2214 24.7197 31.835 23.4155C33.4486 22.1114 35.4547 21.3661 37.4753 20.9935C39.5104 20.6209 41.5747 20.5492 43.6244 20.5206L43.3918 20.7356C43.6825 16.6511 46.43 12.7099 50.4857 11.3484C52.5063 10.6892 54.7305 10.7895 56.7075 11.5204C58.6845 12.237 60.4434 13.5698 61.6354 15.3182L60.9086 15.7195C59.9637 13.8564 60.2835 11.6207 61.272 9.90093C62.246 8.16682 63.8741 6.71934 65.9093 6.21773C67.9153 5.73046 70.0232 6.10308 71.8257 6.91998C73.6428 7.73687 75.2419 8.94072 76.6083 10.3452L75.678 10.4455C76.7973 8.58243 78.8325 7.37859 80.9403 7.06329C83.0481 6.73367 85.2868 7.16361 87.1039 8.2958C88.9065 9.41366 90.302 11.0475 91.3196 12.8246C92.3371 14.616 93.0058 16.5508 93.4274 18.5285L92.4825 17.9696C94.5031 17.339 96.6836 17.3533 98.7042 17.8549C100.725 18.3565 102.6 19.3311 104.199 20.6066C107.397 23.1576 109.607 27.0414 109.738 31.1976L108.924 30.4237C113.183 30.3807 117.151 32.9317 119.128 36.5432C121.105 40.1691 121.207 44.6405 119.419 48.3667L118.91 47.2202C120.19 47.6071 121.353 48.424 122.152 49.4416C122.966 50.4591 123.475 51.6343 123.809 52.7951C124.493 55.1598 124.551 57.5819 124.304 59.9322C124.027 62.3113 123.489 64.5613 122.719 66.8114C121.934 69.0471 120.8 71.2255 119.114 73.0169C117.399 74.8083 115.131 76.0982 112.587 76.3991C111.322 76.5568 110.014 76.4278 108.807 75.9549C107.586 75.4963 106.554 74.708 105.726 73.7621C104.068 71.8417 103.341 69.434 102.978 67.1123C102.615 64.7763 102.6 62.4402 102.658 60.1185C102.658 59.7889 102.934 59.531 103.269 59.5453C103.589 59.5453 103.85 59.8032 103.85 60.1185C103.923 63.9164 101.306 67.3273 97.9047 68.7604C96.2039 69.4914 94.2269 69.6633 92.4389 69.2334C90.6363 68.8321 88.9791 67.9435 87.5981 66.7827C84.7925 64.4753 83.0917 61.0931 82.4667 57.6392C81.8125 54.1566 82.0742 50.5881 82.8737 47.1915L83.3098 47.4638C81.5799 48.7967 79.6174 49.8858 77.4951 50.5021C75.3872 51.1184 73.0323 51.1757 70.9535 50.3445C68.8748 49.4989 67.3193 47.7218 66.4907 45.7154C65.6476 43.7233 65.5749 41.2869 66.8251 39.4238L67.0141 39.5528C65.6767 41.3156 64.1358 42.9637 62.3041 44.2392C60.487 45.5147 58.321 46.4176 56.0533 46.432C53.771 46.432 51.6196 45.2998 50.1368 43.6516C48.6395 42.0178 47.8255 39.6675 48.436 37.5034L48.4942 37.5321C46.6916 40.9287 44.8745 44.3969 42.0253 47.0482Z" fill="#050505"/>
<path d="M46.3573 28.4459C48.0581 24.0461 53.4076 27.4284 55.0648 29.8504C55.1375 29.965 55.3701 30.0367 55.4282 29.8647C56.9546 26.1099 61.5482 24.1751 65.3714 25.8806C65.5604 25.9666 65.604 25.6943 65.4732 25.6083C63.6415 24.1751 61.5918 23.6735 59.3532 24.4904C58.1612 24.9204 57.2017 25.6226 56.4022 26.5971C55.5591 27.6147 55.5445 28.9762 54.5851 28.3026C53.553 27.5717 53.2913 25.9666 52.0702 25.2213C51.169 24.6767 50.1514 24.4617 49.1193 24.5477C46.9097 24.734 45.6595 26.2962 46.0375 28.4316C46.0956 28.5892 46.3137 28.5892 46.3573 28.4459Z" fill="#050505"/>
<path d="M82.7429 34.1212C85.2723 33.5909 88.0924 34.0925 88.6593 37.0161C88.7466 37.4461 89.2117 37.7614 89.6188 37.79C91.2178 37.919 92.5407 38.8792 93.2966 40.2694C94.0089 41.5735 93.7181 42.7774 93.5873 44.1532C93.5292 44.7408 94.5031 45.2854 94.9247 44.7695C97.832 41.1436 93.5292 36.0129 89.5751 35.8553C89.895 36.1132 90.2148 36.3712 90.5346 36.6292C89.8077 33.4906 85.0106 30.5813 82.3794 33.4762C82.1468 33.7485 82.394 34.1928 82.7429 34.1212Z" fill="#050505"/>
<path d="M76.3176 21.3088C77.6695 17.6973 81.2892 17.9122 84.4727 18.1559C84.7635 18.1845 85.0396 17.8692 84.9234 17.5826C83.9785 15.2752 81.1874 14.8883 78.9923 15.5045C76.5211 16.2068 74.4278 17.9982 74.0934 20.5922C73.919 21.9537 75.7943 22.7133 76.3176 21.3088Z" fill="#050505"/>
<path d="M110.261 52.8525C112.194 52.5659 112.194 49.8715 112.02 48.467C111.744 46.346 110.828 44.3252 108.924 43.193C108.066 42.6771 107.295 43.5657 107.673 44.3826C108.371 45.873 109.2 47.3349 109.374 48.9973C109.491 50.2298 109.2 51.663 109.97 52.7235C110.043 52.8095 110.145 52.8668 110.261 52.8525Z" fill="#050505"/>
</g>
<defs>
<clipPath id="clip0_531_6096">
<rect width="244" height="228" fill="white"/>
</clipPath>
<clipPath id="clip1_531_6096">
<rect width="16" height="16" fill="white" transform="translate(26 54)"/>
</clipPath>
</defs>
</svg>
