<svg width="31" height="44" viewBox="0 0 31 44" fill="none" xmlns="http://www.w3.org/2000/svg">
<path d="M24.9526 28.926C24.4665 28.926 24.072 28.5674 24.072 28.1255C24.072 25.0602 22.7593 22.1795 20.3755 20.0118C20.0315 19.6991 20.0315 19.1921 20.3755 18.8794C20.7195 18.5667 21.2773 18.5667 21.6215 18.8794C24.3375 21.3491 25.8333 24.6333 25.8333 28.1255C25.8333 28.5674 25.4388 28.926 24.9526 28.926Z" fill="#343A40"/>
<path d="M0.880688 28.926C0.394546 28.926 0 28.5673 0 28.1255C0 24.6333 1.49605 21.3491 4.21315 18.8804C4.55717 18.5677 5.11513 18.5677 5.45915 18.8804C5.80316 19.1931 5.80316 19.7002 5.45915 20.0129C3.07424 22.1795 1.76138 25.0601 1.76138 28.1255C1.76138 28.5673 1.36683 28.926 0.880688 28.926Z" fill="#343A40"/>
<path d="M12.9166 43.068C10.4883 43.068 8.51324 41.2728 8.51324 39.0656C8.51324 38.6237 8.90779 38.2651 9.39392 38.2651C9.88006 38.2651 10.2746 38.6237 10.2746 39.0656C10.2746 40.3902 11.4593 41.4671 12.9166 41.4671C14.3738 41.4671 15.5587 40.3902 15.5587 39.0656C15.5587 38.6237 15.9532 38.2651 16.4394 38.2651C16.9255 38.2651 17.32 38.6237 17.32 39.0656C17.32 41.2728 15.345 43.068 12.9166 43.068Z" fill="#343A40"/>
<path d="M22.6041 39.8661H3.22906C2.09574 39.8661 1.17399 39.0282 1.17399 37.9983C1.17399 37.4517 1.43587 36.9342 1.89277 36.5787C3.67865 35.2071 4.69673 33.2135 4.69673 31.1013V28.1255C4.69673 24.0058 8.38395 20.6543 12.9166 20.6543C17.449 20.6543 21.1362 24.0058 21.1362 28.1255V31.1013C21.1362 33.2135 22.1543 35.2071 23.9286 36.5713C24.3971 36.9342 24.659 37.4517 24.659 37.9983C24.659 39.0282 23.7372 39.8661 22.6041 39.8661ZM12.9166 22.2553C9.35493 22.2553 6.45809 24.8883 6.45809 28.1255V31.1013C6.45809 33.6851 5.21232 36.1251 3.04114 37.7933C3.00008 37.8254 2.93536 37.8916 2.93536 37.9983C2.93536 38.1433 3.06931 38.2651 3.22906 38.2651H22.6041C22.7637 38.2651 22.8976 38.1433 22.8976 37.9983C22.8976 37.8916 22.8331 37.8254 22.7942 37.7955C20.6206 36.1251 19.3749 33.6851 19.3749 31.1013V28.1255C19.3749 24.8883 16.478 22.2553 12.9166 22.2553Z" fill="#343A40"/>
<path d="M12.9167 22.2553C12.4305 22.2553 12.036 21.8967 12.036 21.4548V18.2528C12.036 17.8109 12.4305 17.4523 12.9167 17.4523C13.4028 17.4523 13.7973 17.8109 13.7973 18.2528V21.4548C13.7973 21.8967 13.4028 22.2553 12.9167 22.2553Z" fill="#343A40"/>
<path d="M31 11.3671C31 16.2173 26.7703 20.1492 21.5528 20.1492C16.3352 20.1492 12.1055 16.2173 12.1055 11.3671C12.1055 6.5168 16.3352 2.5849 21.5528 2.5849C26.7703 2.5849 31 6.5168 31 11.3671Z" fill="white"/>
<ellipse cx="21.5527" cy="11.3671" rx="8.26633" ry="7.68439" fill="#FDF6E9"/>
<path d="M20.9319 10.8282H21.5764C21.8922 10.8282 22.1526 10.7762 22.3577 10.672C22.566 10.5646 22.7207 10.4197 22.8216 10.2374C22.9257 10.0519 22.9778 9.84355 22.9778 9.61243C22.9778 9.33899 22.9322 9.1095 22.8411 8.92395C22.7499 8.7384 22.6132 8.59843 22.4309 8.50403C22.2486 8.40963 22.0175 8.36243 21.7376 8.36243C21.4837 8.36243 21.2591 8.41288 21.0638 8.51379C20.8717 8.61145 20.7203 8.75142 20.6096 8.93372C20.5022 9.11601 20.4485 9.33085 20.4485 9.57825H19.5452C19.5452 9.21692 19.6363 8.88814 19.8186 8.59192C20.0009 8.29569 20.2565 8.05969 20.5852 7.88391C20.9173 7.70813 21.3014 7.62024 21.7376 7.62024C22.1673 7.62024 22.5432 7.69674 22.8655 7.84973C23.1878 7.99947 23.4384 8.22408 23.6175 8.52356C23.7965 8.81978 23.886 9.18925 23.886 9.63196C23.886 9.81099 23.8437 10.0031 23.7591 10.2081C23.6777 10.41 23.5491 10.5988 23.3733 10.7745C23.2008 10.9503 22.9762 11.0952 22.6995 11.2091C22.4228 11.3198 22.0908 11.3751 21.7034 11.3751H20.9319V10.8282ZM20.9319 11.5704V11.0284H21.7034C22.1559 11.0284 22.5302 11.0822 22.8264 11.1896C23.1227 11.297 23.3554 11.4402 23.5247 11.6193C23.6972 11.7983 23.8177 11.9952 23.886 12.2101C23.9576 12.4217 23.9934 12.6333 23.9934 12.8448C23.9934 13.1769 23.9365 13.4715 23.8225 13.7286C23.7119 13.9858 23.554 14.2039 23.3489 14.3829C23.1471 14.562 22.9095 14.6971 22.636 14.7882C22.3626 14.8794 22.0647 14.9249 21.7425 14.9249C21.4332 14.9249 21.1419 14.881 20.8684 14.7931C20.5983 14.7052 20.359 14.5782 20.1507 14.4122C19.9423 14.243 19.7796 14.0363 19.6624 13.7921C19.5452 13.5447 19.4866 13.2631 19.4866 12.9474H20.3899C20.3899 13.1948 20.4436 13.4113 20.5511 13.5968C20.6617 13.7823 20.818 13.9272 21.0198 14.0314C21.2249 14.1323 21.4658 14.1827 21.7425 14.1827C22.0192 14.1827 22.2568 14.1355 22.4554 14.0411C22.6572 13.9435 22.8118 13.797 22.9192 13.6017C23.0299 13.4064 23.0852 13.1606 23.0852 12.8644C23.0852 12.5682 23.0234 12.3256 22.8997 12.1368C22.776 11.9448 22.6002 11.8032 22.3723 11.712C22.1477 11.6176 21.8824 11.5704 21.5764 11.5704H20.9319Z" fill="#343A40"/>
</svg>
