<svg width="47" height="46" viewBox="0 0 47 46" fill="none" xmlns="http://www.w3.org/2000/svg">
<path d="M39.2022 30.6667V35.4583C39.2022 38.8765 36.3904 41.6667 32.9238 41.6667H13.5569C10.0903 41.6667 7.27843 38.8765 7.27843 35.4583V34.2125C7.27843 31.4844 9.52863 29.25 12.298 29.25H37.7655C38.5595 29.25 39.2022 29.8935 39.2022 30.6667Z" fill="#FFE465" stroke="black"/>
<path d="M30.0188 3.83331H16.4619C8.71513 3.83331 6.77843 5.74998 6.77843 13.4166V27.945C8.25032 26.6608 10.187 25.875 12.298 25.875H37.7655C38.8307 25.875 39.7022 25.0125 39.7022 23.9583V13.4166C39.7022 5.74998 37.7655 3.83331 30.0188 3.83331ZM25.177 20.6041H15.4936C14.6995 20.6041 14.041 19.9525 14.041 19.1666C14.041 18.3808 14.6995 17.7291 15.4936 17.7291H25.177C25.9711 17.7291 26.6295 18.3808 26.6295 19.1666C26.6295 19.9525 25.9711 20.6041 25.177 20.6041ZM30.9871 13.8958H15.4936C14.6995 13.8958 14.041 13.2441 14.041 12.4583C14.041 11.6725 14.6995 11.0208 15.4936 11.0208H30.9871C31.7812 11.0208 32.4396 11.6725 32.4396 12.4583C32.4396 13.2441 31.7812 13.8958 30.9871 13.8958Z" fill="#353B40"/>
</svg>
