<svg width="22" height="22" viewBox="0 0 22 22" fill="none" xmlns="http://www.w3.org/2000/svg">
<g clip-path="url(#clip0_828_8812)">
<path fill-rule="evenodd" clip-rule="evenodd" d="M22 6.79121L15.7453 13.5824V10.1992C11.7903 9.31841 8.66589 10.2893 6.29294 13.523C6.7049 6.87243 10.9312 3.66301 15.7452 3.45055L15.7453 0L22 6.79121Z" fill="#343A40"/>
<path d="M1.23678 4.56982H7.61514C6.7939 5.33191 6.05573 6.21774 5.41943 7.22846H2.47339V19.3416H16.9043V16.5178L19.3775 13.9046V20.6708C19.3775 21.4048 18.8237 22 18.1409 22H1.23678C0.55376 22 0 21.4048 0 20.6708V5.89905C0 5.16487 0.55376 4.56982 1.23678 4.56982Z" fill="#343A40"/>
</g>
<defs>
<clipPath id="clip0_828_8812">
<rect width="22" height="22" fill="white"/>
</clipPath>
</defs>
</svg>
