<svg width="197" height="194" viewBox="0 0 197 194" fill="none" xmlns="http://www.w3.org/2000/svg">
<path d="M43.7578 163.175L40.5352 166.414C40.374 165.962 40.1538 165.56 39.8745 165.205C39.5952 164.84 39.2783 164.534 38.9238 164.287C38.5801 164.04 38.2041 163.852 37.7959 163.723C37.3877 163.594 36.9688 163.529 36.5391 163.529C35.9375 163.529 35.3682 163.653 34.8311 163.9C34.3047 164.147 33.8428 164.496 33.4453 164.947C33.0586 165.388 32.7524 165.914 32.5269 166.526C32.3013 167.139 32.1885 167.815 32.1885 168.557C32.1885 169.158 32.3013 169.722 32.5269 170.249C32.7524 170.775 33.0586 171.237 33.4453 171.634C33.8428 172.032 34.3047 172.343 34.8311 172.569C35.3682 172.794 35.9375 172.907 36.5391 172.907C36.9688 172.907 37.3823 172.848 37.7798 172.73C38.1772 172.612 38.5479 172.445 38.8916 172.23C39.2461 172.005 39.5576 171.736 39.8262 171.425C40.1055 171.103 40.3311 170.748 40.5029 170.361L43.7256 173.6C43.3174 174.18 42.8447 174.701 42.3076 175.163C41.7812 175.625 41.2065 176.017 40.5835 176.339C39.9712 176.662 39.3213 176.903 38.6338 177.064C37.957 177.236 37.2588 177.322 36.5391 177.322C35.3252 177.322 34.1812 177.097 33.1069 176.646C32.0435 176.184 31.1089 175.555 30.3032 174.76C29.5083 173.965 28.8799 173.036 28.418 171.973C27.9561 170.909 27.7251 169.771 27.7251 168.557C27.7251 167.235 27.9561 166 28.418 164.851C28.8799 163.701 29.5083 162.702 30.3032 161.854C31.1089 160.994 32.0435 160.317 33.1069 159.823C34.1812 159.329 35.3252 159.082 36.5391 159.082C37.2588 159.082 37.9624 159.173 38.6499 159.356C39.3481 159.539 40.0088 159.807 40.6318 160.162C41.2656 160.505 41.8457 160.93 42.3721 161.435C42.9092 161.939 43.3711 162.52 43.7578 163.175ZM63.0947 177H62.0312L60.3232 174.631C59.9042 175.007 59.4584 175.362 58.9858 175.695C58.5239 176.017 58.0351 176.302 57.5195 176.549C57.0038 176.785 56.4721 176.973 55.9242 177.113C55.3871 177.252 54.8393 177.322 54.2807 177.322C53.0668 177.322 51.9228 177.118 50.8486 176.71C49.7851 176.302 48.8505 175.711 48.0448 174.938C47.2499 174.153 46.6215 173.197 46.1596 172.069C45.6977 170.941 45.4667 169.658 45.4667 168.218C45.4667 166.875 45.6977 165.646 46.1596 164.528C46.6215 163.4 47.2499 162.434 48.0448 161.628C48.8505 160.822 49.7851 160.199 50.8486 159.759C51.9228 159.308 53.0668 159.082 54.2807 159.082C54.8393 159.082 55.3925 159.152 55.9404 159.292C56.4882 159.431 57.0199 159.625 57.5356 159.872C58.0512 160.119 58.54 160.409 59.0019 160.742C59.4745 161.075 59.915 161.435 60.3232 161.821L62.0312 159.775H63.0947V177ZM58.6635 168.218C58.6635 167.617 58.5453 167.037 58.309 166.478C58.0834 165.909 57.7719 165.409 57.3744 164.979C56.977 164.539 56.5097 164.19 55.9726 163.932C55.4462 163.664 54.8822 163.529 54.2807 163.529C53.6791 163.529 53.1098 163.631 52.5727 163.835C52.0463 164.04 51.5844 164.34 51.1869 164.738C50.8002 165.135 50.4941 165.629 50.2685 166.22C50.0429 166.8 49.9301 167.466 49.9301 168.218C49.9301 168.97 50.0429 169.642 50.2685 170.232C50.4941 170.812 50.8002 171.301 51.1869 171.699C51.5844 172.096 52.0463 172.397 52.5727 172.601C53.1098 172.805 53.6791 172.907 54.2807 172.907C54.8822 172.907 55.4462 172.778 55.9726 172.521C56.5097 172.252 56.977 171.903 57.3744 171.473C57.7719 171.033 58.0834 170.533 58.309 169.975C58.5453 169.405 58.6635 168.82 58.6635 168.218ZM71.5873 177H67.1883V152.878H71.5873V160.5C72.1136 160.103 72.6561 159.823 73.2147 159.662C73.7733 159.49 74.3426 159.404 74.9227 159.404C75.9862 159.404 76.9852 159.608 77.9198 160.017C78.8543 160.414 79.6654 160.967 80.3529 161.676C81.0511 162.375 81.599 163.196 81.9964 164.142C82.4046 165.076 82.6087 166.075 82.6087 167.139V177H78.1776V167.139H78.2098C78.2098 166.688 78.1239 166.263 77.952 165.866C77.7801 165.458 77.5438 165.103 77.243 164.802C76.9422 164.501 76.5931 164.265 76.1957 164.093C75.7982 163.921 75.3739 163.835 74.9227 163.835C74.4608 163.835 74.0257 163.921 73.6175 164.093C73.2093 164.265 72.8548 164.501 72.5541 164.802C72.2533 165.103 72.0169 165.458 71.8451 165.866C71.6732 166.263 71.5873 166.688 71.5873 167.139V177ZM110.519 167.767V163.143C110.519 162.509 110.395 161.913 110.148 161.354C109.912 160.785 109.584 160.291 109.165 159.872C108.746 159.453 108.252 159.125 107.683 158.889C107.124 158.642 106.528 158.518 105.894 158.518C105.26 158.518 104.659 158.642 104.09 158.889C103.531 159.125 103.042 159.453 102.623 159.872C102.204 160.291 101.871 160.785 101.624 161.354C101.388 161.913 101.27 162.509 101.27 163.143V167.767H110.519ZM115.143 177H110.519V172.375H101.27V177H96.6613V163.143C96.6613 161.864 96.903 160.667 97.3864 159.549C97.8698 158.421 98.5251 157.438 99.3522 156.601C100.19 155.763 101.168 155.102 102.285 154.619C103.413 154.135 104.616 153.894 105.894 153.894C107.173 153.894 108.37 154.135 109.487 154.619C110.615 155.102 111.598 155.763 112.436 156.601C113.274 157.438 113.935 158.421 114.418 159.549C114.902 160.667 115.143 161.864 115.143 163.143V177ZM123.813 177H119.414V159.743H120.478L121.928 161.418C122.637 160.774 123.437 160.28 124.329 159.936C125.231 159.582 126.171 159.404 127.149 159.404C128.201 159.404 129.195 159.608 130.13 160.017C131.064 160.414 131.88 160.967 132.579 161.676C133.277 162.375 133.825 163.196 134.222 164.142C134.63 165.076 134.835 166.075 134.835 167.139V177H130.436V167.139C130.436 166.688 130.35 166.263 130.178 165.866C130.006 165.458 129.77 165.103 129.469 164.802C129.168 164.501 128.819 164.265 128.422 164.093C128.024 163.921 127.6 163.835 127.149 163.835C126.687 163.835 126.252 163.921 125.843 164.093C125.435 164.265 125.081 164.501 124.78 164.802C124.479 165.103 124.243 165.458 124.071 165.866C123.899 166.263 123.813 166.688 123.813 167.139V177ZM150.981 168.218C150.981 167.617 150.863 167.037 150.627 166.478C150.401 165.909 150.089 165.409 149.692 164.979C149.294 164.539 148.827 164.19 148.29 163.932C147.764 163.664 147.2 163.529 146.598 163.529C145.997 163.529 145.427 163.631 144.89 163.835C144.364 164.04 143.902 164.34 143.504 164.738C143.118 165.135 142.812 165.629 142.586 166.22C142.36 166.8 142.248 167.466 142.248 168.218C142.248 168.938 142.36 169.588 142.586 170.168C142.812 170.737 143.118 171.226 143.504 171.634C143.902 172.042 144.364 172.359 144.89 172.585C145.427 172.8 145.997 172.907 146.598 172.907C147.2 172.907 147.764 172.778 148.29 172.521C148.827 172.252 149.294 171.903 149.692 171.473C150.089 171.033 150.401 170.533 150.627 169.975C150.863 169.405 150.981 168.82 150.981 168.218ZM155.412 174.825C155.412 176.039 155.181 177.177 154.719 178.241C154.257 179.304 153.624 180.233 152.818 181.028C152.023 181.823 151.088 182.452 150.014 182.914C148.951 183.375 147.812 183.606 146.598 183.606L144.391 183.574V179.175L146.566 179.208C147.253 179.208 147.839 179.116 148.322 178.934C148.806 178.762 149.214 178.52 149.547 178.208C149.88 177.908 150.143 177.559 150.336 177.161C150.541 176.764 150.702 176.345 150.82 175.904C150.648 176.184 150.401 176.415 150.079 176.597C149.756 176.769 149.397 176.909 148.999 177.016C148.612 177.134 148.204 177.215 147.774 177.258C147.356 177.301 146.963 177.322 146.598 177.322C145.384 177.322 144.24 177.113 143.166 176.694C142.103 176.275 141.168 175.679 140.362 174.905C139.567 174.121 138.939 173.165 138.477 172.037C138.015 170.909 137.784 169.636 137.784 168.218C137.784 166.918 138.015 165.71 138.477 164.593C138.939 163.476 139.567 162.509 140.362 161.692C141.168 160.876 142.103 160.237 143.166 159.775C144.24 159.313 145.384 159.082 146.598 159.082C147.157 159.082 147.71 159.152 148.258 159.292C148.806 159.431 149.337 159.625 149.853 159.872C150.369 160.119 150.857 160.409 151.319 160.742C151.792 161.075 152.232 161.435 152.641 161.821L154.349 159.775H155.412V174.825ZM176.183 168.218C176.183 169.507 175.952 170.71 175.49 171.828C175.028 172.934 174.4 173.896 173.605 174.712C172.81 175.518 171.875 176.157 170.801 176.629C169.738 177.091 168.594 177.322 167.369 177.322C166.155 177.322 165.011 177.091 163.937 176.629C162.874 176.157 161.939 175.518 161.133 174.712C160.338 173.896 159.71 172.934 159.248 171.828C158.786 170.71 158.555 169.507 158.555 168.218C158.555 166.908 158.786 165.694 159.248 164.577C159.71 163.459 160.338 162.498 161.133 161.692C161.939 160.876 162.874 160.237 163.937 159.775C165.011 159.313 166.155 159.082 167.369 159.082C168.594 159.082 169.738 159.302 170.801 159.743C171.875 160.172 172.81 160.79 173.605 161.596C174.4 162.391 175.028 163.352 175.49 164.48C175.952 165.597 176.183 166.843 176.183 168.218ZM171.752 168.218C171.752 167.509 171.634 166.87 171.397 166.301C171.172 165.721 170.86 165.227 170.463 164.818C170.065 164.399 169.598 164.083 169.061 163.868C168.535 163.642 167.971 163.529 167.369 163.529C166.768 163.529 166.198 163.642 165.661 163.868C165.135 164.083 164.673 164.399 164.275 164.818C163.889 165.227 163.582 165.721 163.357 166.301C163.131 166.87 163.019 167.509 163.019 168.218C163.019 168.884 163.131 169.502 163.357 170.071C163.582 170.641 163.889 171.135 164.275 171.554C164.673 171.973 165.135 172.306 165.661 172.553C166.198 172.789 166.768 172.907 167.369 172.907C167.971 172.907 168.535 172.794 169.061 172.569C169.598 172.343 170.065 172.026 170.463 171.618C170.86 171.21 171.172 170.716 171.397 170.136C171.634 169.556 171.752 168.917 171.752 168.218ZM183.741 177H179.342V159.743H180.406L181.856 161.418C182.565 160.774 183.365 160.28 184.257 159.936C185.159 159.582 186.099 159.404 187.077 159.404C188.129 159.404 189.123 159.608 190.058 160.017C190.992 160.414 191.808 160.967 192.507 161.676C193.205 162.375 193.753 163.196 194.15 164.142C194.558 165.076 194.763 166.075 194.763 167.139V177H190.364V167.139C190.364 166.688 190.278 166.263 190.106 165.866C189.934 165.458 189.698 165.103 189.397 164.802C189.096 164.501 188.747 164.265 188.35 164.093C187.952 163.921 187.528 163.835 187.077 163.835C186.615 163.835 186.18 163.921 185.771 164.093C185.363 164.265 185.009 164.501 184.708 164.802C184.407 165.103 184.171 165.458 183.999 165.866C183.827 166.263 183.741 166.688 183.741 167.139V177Z" fill="black" fill-opacity="0.98"/>
<path d="M27.6704 145.443C27.1392 146.24 26.5083 146.987 25.7778 147.685C25.0474 148.382 24.2422 148.996 23.3623 149.527C22.499 150.059 21.5859 150.482 20.623 150.797C19.6602 151.096 18.6973 151.246 17.7344 151.246L17.1616 151.295C16.5308 152.092 16.0493 152.864 15.7173 153.611C15.3853 154.358 15.2192 155.238 15.2192 156.251V172.164C15.2192 174.372 14.7461 176.339 13.7998 178.065C12.8701 179.775 11.4922 181.253 9.66602 182.498L8.84424 181.552C9.12646 181.236 9.35059 180.879 9.5166 180.481C9.68262 180.066 9.80713 179.643 9.89014 179.211C9.97314 178.779 10.0229 178.348 10.0396 177.916C10.0728 177.468 10.0894 177.044 10.0894 176.646V159.14C10.0894 158.359 10.2471 157.604 10.5625 156.874C10.8945 156.126 11.3096 155.421 11.8076 154.757C12.3057 154.093 12.8535 153.47 13.4512 152.889C14.0654 152.308 14.6548 151.777 15.2192 151.295L6.97656 151.246C6.3457 151.246 5.78125 151.312 5.2832 151.445C4.80176 151.561 4.35352 151.735 3.93848 151.968C3.52344 152.2 3.125 152.491 2.74316 152.839C2.36133 153.188 1.97119 153.595 1.57275 154.06L0.850586 153.288C1.39844 152.541 2.0127 151.752 2.69336 150.922C3.39062 150.092 4.1377 149.336 4.93457 148.656C5.74805 147.975 6.61133 147.411 7.52441 146.962C8.4541 146.514 9.42529 146.29 10.438 146.29H21.1958C21.6274 146.29 22.1089 146.265 22.6401 146.215C23.188 146.166 23.7358 146.083 24.2837 145.966C24.8315 145.85 25.3462 145.701 25.8276 145.518C26.3257 145.319 26.7407 145.07 27.0728 144.771L27.6704 145.443Z" fill="#FFE465"/>
<path d="M27.6704 145.443L30.9986 147.662L32.7111 145.093L30.66 142.786L27.6704 145.443ZM25.7778 147.685L28.5397 150.578L25.7778 147.685ZM23.3623 149.527L21.2948 146.103L21.2803 146.112L21.2659 146.121L23.3623 149.527ZM20.623 150.797L21.8086 154.618L21.8385 154.608L21.8683 154.599L20.623 150.797ZM17.7344 151.246V147.246H17.5608L17.3879 147.261L17.7344 151.246ZM17.1616 151.295L16.8151 147.31L15.0963 147.46L14.0254 148.813L17.1616 151.295ZM13.7998 178.065L10.2921 176.143L10.2856 176.155L13.7998 178.065ZM9.66602 182.498L6.64588 185.121L8.97918 187.808L11.9194 185.803L9.66602 182.498ZM8.84424 181.552L5.86327 178.885L3.51217 181.512L5.82411 184.175L8.84424 181.552ZM9.5166 180.481L13.2089 182.019L13.2199 181.993L13.2305 181.967L9.5166 180.481ZM10.0396 177.916L6.05048 177.621L6.04523 177.691L6.04251 177.762L10.0396 177.916ZM10.5625 156.874L6.90725 155.249L6.89865 155.268L6.89025 155.288L10.5625 156.874ZM13.4512 152.889L10.7024 149.983L10.6825 150.002L10.6629 150.021L13.4512 152.889ZM15.2192 151.295L17.815 154.339L25.9965 147.36L15.2434 147.295L15.2192 151.295ZM6.97656 151.246L7.00073 147.246L6.98865 147.246H6.97656V151.246ZM5.2832 151.445L6.22177 155.333L6.26795 155.322L6.31385 155.31L5.2832 151.445ZM1.57275 154.06L-1.34833 156.792L1.70301 160.054L4.60978 156.663L1.57275 154.06ZM0.850586 153.288L-2.37503 150.922L-4.33694 153.597L-2.0705 156.02L0.850586 153.288ZM2.69336 150.922L-0.36946 148.349L-0.384694 148.367L-0.399712 148.386L2.69336 150.922ZM4.93457 148.656L2.36768 145.588L2.35209 145.601L2.33663 145.614L4.93457 148.656ZM7.52441 146.962L5.78722 143.359L5.77445 143.365L5.76172 143.372L7.52441 146.962ZM22.6401 146.215L22.278 142.232L22.2668 142.233L22.6401 146.215ZM25.8276 145.518L27.2463 149.258L27.2798 149.245L27.3132 149.232L25.8276 145.518ZM27.0728 144.771L30.0624 142.114L27.3885 139.105L24.3969 141.798L27.0728 144.771ZM24.3422 143.225C23.9829 143.763 23.5449 144.286 23.0159 144.791L28.5397 150.578C29.4717 149.688 30.2954 148.717 30.9986 147.662L24.3422 143.225ZM23.0159 144.791C22.5006 145.283 21.929 145.72 21.2948 146.103L25.4298 152.952C26.5554 152.272 27.5941 151.481 28.5397 150.578L23.0159 144.791ZM21.2659 146.121C20.6698 146.488 20.0424 146.778 19.3778 146.996L21.8683 154.599C23.1295 154.185 24.3283 153.63 25.4587 152.934L21.2659 146.121ZM19.4375 146.977C18.8403 147.162 18.2767 147.246 17.7344 147.246V155.246C19.1178 155.246 20.48 155.03 21.8086 154.618L19.4375 146.977ZM17.3879 147.261L16.8151 147.31L17.5081 155.28L18.0809 155.231L17.3879 147.261ZM14.0254 148.813C13.2344 149.812 12.5587 150.869 12.062 151.987L19.3725 155.236C19.5399 154.859 19.8271 154.373 20.2978 153.778L14.0254 148.813ZM12.062 151.987C11.4553 153.352 11.2192 154.809 11.2192 156.251H19.2192C19.2192 155.668 19.3152 155.365 19.3725 155.236L12.062 151.987ZM11.2192 156.251V172.164H19.2192V156.251H11.2192ZM11.2192 172.164C11.2192 173.783 10.8777 175.074 10.2921 176.143L17.3075 179.988C18.6145 177.603 19.2192 174.961 19.2192 172.164H11.2192ZM10.2856 176.155C9.69843 177.235 8.78555 178.257 7.41267 179.193L11.9194 185.803C14.1988 184.249 16.0418 182.316 17.314 179.976L10.2856 176.155ZM12.6861 179.875L11.8644 178.929L5.82411 184.175L6.64588 185.121L12.6861 179.875ZM11.8252 184.219C12.412 183.563 12.8741 182.823 13.2089 182.019L5.82429 178.942C5.82418 178.943 5.82508 178.941 5.82723 178.936C5.82938 178.932 5.83244 178.927 5.83644 178.92C5.84494 178.907 5.8545 178.894 5.86327 178.885L11.8252 184.219ZM13.2305 181.967C13.4893 181.319 13.6863 180.652 13.8182 179.966L5.96211 178.456C5.92792 178.633 5.8759 178.812 5.80269 178.995L13.2305 181.967ZM13.8182 179.966C13.9387 179.34 14.0121 178.707 14.0366 178.07L6.04251 177.762C6.03381 177.988 6.00761 178.219 5.96211 178.456L13.8182 179.966ZM14.0286 178.212C14.0682 177.677 14.0894 177.155 14.0894 176.646H6.08936C6.08936 176.934 6.0773 177.258 6.05048 177.621L14.0286 178.212ZM14.0894 176.646V159.14H6.08936V176.646H14.0894ZM14.0894 159.14C14.0894 158.916 14.1312 158.699 14.2347 158.459L6.89025 155.288C6.36298 156.509 6.08936 157.803 6.08936 159.14H14.0894ZM14.2177 158.498C14.4258 158.03 14.6872 157.584 15.0076 157.157L8.60762 152.357C7.93194 153.258 7.36328 154.223 6.90725 155.249L14.2177 158.498ZM15.0076 157.157C15.3803 156.66 15.7904 156.194 16.2395 155.757L10.6629 150.021C9.91664 150.747 9.23104 151.526 8.60762 152.357L15.0076 157.157ZM16.2 155.795C16.7711 155.255 17.3093 154.77 17.815 154.339L12.6235 148.252C12.0002 148.784 11.3597 149.361 10.7024 149.983L16.2 155.795ZM15.2434 147.295L7.00073 147.246L6.95239 155.246L15.1951 155.295L15.2434 147.295ZM6.97656 147.246C6.07227 147.246 5.15192 147.34 4.25255 147.58L6.31385 155.31C6.41058 155.284 6.61913 155.246 6.97656 155.246V147.246ZM4.34464 147.556C3.52266 147.755 2.73085 148.06 1.98406 148.478L5.89289 155.458C5.97618 155.411 6.08086 155.367 6.22177 155.333L4.34464 147.556ZM1.98406 148.478C1.27973 148.872 0.634698 149.348 0.0460866 149.885L5.44024 155.793C5.6153 155.633 5.76714 155.528 5.89289 155.458L1.98406 148.478ZM0.0460866 149.885C-0.475594 150.362 -0.978456 150.89 -1.46427 151.456L4.60978 156.663C4.92084 156.3 5.19825 156.014 5.44024 155.793L0.0460866 149.885ZM4.49384 151.327L3.77167 150.555L-2.0705 156.02L-1.34833 156.792L4.49384 151.327ZM4.07621 155.653C4.57538 154.972 5.14451 154.241 5.78643 153.458L-0.399712 148.386C-1.11912 149.263 -1.7785 150.109 -2.37503 150.922L4.07621 155.653ZM5.75618 153.495C6.31653 152.828 6.9089 152.23 7.53251 151.697L2.33663 145.614C1.36649 146.443 0.464722 147.356 -0.36946 148.349L5.75618 153.495ZM7.50146 151.724C8.07935 151.24 8.67416 150.854 9.28711 150.553L5.76172 143.372C4.5485 143.967 3.41675 144.71 2.36768 145.588L7.50146 151.724ZM9.26161 150.565C9.66018 150.373 10.0386 150.29 10.438 150.29V142.29C8.81194 142.29 7.24802 142.655 5.78722 143.359L9.26161 150.565ZM10.438 150.29H21.1958V142.29H10.438V150.29ZM21.1958 150.29C21.7771 150.29 22.3858 150.257 23.0135 150.198L22.2668 142.233C21.832 142.274 21.4778 142.29 21.1958 142.29V150.29ZM23.0023 150.199C23.7102 150.135 24.4142 150.028 25.1137 149.879L23.4537 142.053C23.0575 142.137 22.6658 142.197 22.278 142.232L23.0023 150.199ZM25.1137 149.879C25.8446 149.724 26.5575 149.519 27.2463 149.258L24.409 141.778C24.1349 141.882 23.8184 141.976 23.4537 142.053L25.1137 149.879ZM27.3132 149.232C28.1631 148.892 29.0041 148.414 29.7486 147.744L24.3969 141.798C24.4773 141.725 24.4883 141.746 24.3421 141.804L27.3132 149.232ZM24.0831 147.428L24.6808 148.101L30.66 142.786L30.0624 142.114L24.0831 147.428Z" fill="black"/>
<path d="M82.6016 15.1942C82.6016 15.1942 51.9871 13.1877 44.8059 20.6258C37.6393 28.0639 35.8803 40.3173 46.6375 38.9845C57.4093 37.666 81.1333 20.8121 82.6016 15.1942Z" fill="#FFE465"/>
<path opacity="0.8" d="M75.0278 19.1926C75.0278 19.1926 51.798 21.6003 46.8991 28.4508C41.9857 35.3012 48.0184 32.4206 56.2899 30.7152C64.5468 29.024 75.0278 19.1926 75.0278 19.1926Z" fill="black"/>
<path d="M70.3125 39.1959L70.3129 39.1939C71.6528 32.7967 75.0213 27.6277 78.1136 24.0243C79.6539 22.2294 81.1077 20.8441 82.1704 19.9122C82.7011 19.4468 83.1325 19.0961 83.426 18.8654C83.5658 18.7556 83.6741 18.6731 83.7468 18.6186C95.7282 12.4702 109.456 12.1333 121.355 15.7498C133.334 19.3909 143.187 26.9486 147.544 36.2234L147.544 36.2239C151.963 45.6232 152.727 59.5252 150.864 73.7364C149.006 87.9007 144.589 101.99 139.017 111.618C133.615 120.954 123.631 127.518 111.92 130.865C100.22 134.208 87.0076 134.272 75.4412 130.811C58.5231 125.747 50.6907 115.188 47.6114 104.832C46.0586 99.6103 45.7067 94.4048 46.0571 89.9378C46.4102 85.4365 47.4644 81.8266 48.5958 79.7568C51.8595 73.7906 55.0779 68.8455 58.0618 64.2609C59.3321 62.3091 60.5599 60.4226 61.7306 58.5504C65.6163 52.3364 68.8002 46.3794 70.3125 39.1959Z" fill="#F4F5FF" stroke="black" stroke-width="4"/>
<mask id="path-7-inside-1_501_5879" fill="white">
<path d="M67.4687 60.8974C66.1168 64.0074 67.396 67.6906 70.5359 69.1667C75.2313 71.3738 78.7638 66.9597 80.7117 63.3338C81.8165 61.2844 78.3858 59.149 77.3682 61.2844C76.3652 63.3911 74.5917 67.4039 71.5535 67.0027C69.0823 66.6874 68.6025 63.1905 68.6607 61.2557C68.7043 60.7255 67.7449 60.2955 67.4687 60.8974Z"/>
</mask>
<path d="M67.4687 60.8974C66.1168 64.0074 67.396 67.6906 70.5359 69.1667C75.2313 71.3738 78.7638 66.9597 80.7117 63.3338C81.8165 61.2844 78.3858 59.149 77.3682 61.2844C76.3652 63.3911 74.5917 67.4039 71.5535 67.0027C69.0823 66.6874 68.6025 63.1905 68.6607 61.2557C68.7043 60.7255 67.7449 60.2955 67.4687 60.8974Z" fill="#282B2D"/>
<path d="M67.4687 60.8974L63.8331 59.2292L63.8163 59.2658L63.8003 59.3028L67.4687 60.8974ZM70.5359 69.1667L68.8341 72.7866L68.8344 72.7867L70.5359 69.1667ZM80.7117 63.3338L77.1907 61.4357L77.188 61.4408L80.7117 63.3338ZM77.3682 61.2844L73.7573 59.5637L73.7567 59.5649L77.3682 61.2844ZM71.5535 67.0027L72.0773 63.0371L72.0685 63.0359L72.0597 63.0348L71.5535 67.0027ZM68.6607 61.2557L64.6742 60.9279L64.6656 61.0316L64.6625 61.1356L68.6607 61.2557ZM63.8003 59.3028C61.6213 64.3154 63.6571 70.3528 68.8341 72.7866L72.2377 65.5468C71.1349 65.0283 70.6123 63.6994 71.1371 62.4921L63.8003 59.3028ZM68.8344 72.7867C72.8106 74.6558 76.4336 73.5964 79.049 71.6414C81.4541 69.8436 83.1586 67.2311 84.2354 65.2268L77.188 61.4408C76.3168 63.0623 75.2812 64.4699 74.2592 65.2338C73.7881 65.586 73.4419 65.7088 73.2137 65.7445C73.0281 65.7736 72.7325 65.7794 72.2375 65.5467L68.8344 72.7867ZM84.2327 65.2319C86.1776 61.6239 83.7973 58.4853 81.9381 57.3368C80.9109 56.7022 79.4714 56.218 77.8737 56.461C76.0814 56.7337 74.5676 57.8631 73.7573 59.5637L80.9792 63.0051C80.8576 63.2603 80.63 63.5894 80.2515 63.8737C79.8731 64.1579 79.4567 64.3123 79.0769 64.37C78.3741 64.477 77.914 64.2543 77.7336 64.1428C77.5374 64.0216 77.2654 63.786 77.085 63.3353C76.8646 62.7848 76.8571 62.0545 77.1907 61.4357L84.2327 65.2319ZM73.7567 59.5649C73.1896 60.7558 72.6902 61.8287 72.0697 62.6243C71.4192 63.4586 71.4613 62.9558 72.0773 63.0371L71.0297 70.9682C74.6839 71.4509 77.1319 69.1423 78.3784 67.5437C79.655 65.9066 80.5438 63.9197 80.9798 63.0039L73.7567 59.5649ZM72.0597 63.0348C72.2135 63.0544 72.3889 63.1054 72.5608 63.1947C72.7286 63.2818 72.8463 63.381 72.9175 63.4541C73.0402 63.5803 73.0031 63.6035 72.9163 63.3655C72.835 63.1428 72.7589 62.8234 72.7099 62.4307C72.6619 62.0456 72.65 61.6707 72.6589 61.3759L64.6625 61.1356C64.6246 62.398 64.7447 64.3089 65.4009 66.1075C66.0408 67.8614 67.6341 70.535 71.0473 70.9705L72.0597 63.0348ZM72.6472 61.5836C72.7648 60.1541 72.1833 59.0233 71.6012 58.3266C71.0251 57.6371 70.2967 57.1658 69.5607 56.8962C68.8351 56.6303 67.8137 56.4594 66.694 56.7745C65.4457 57.1258 64.3956 58.0034 63.8331 59.2292L71.1042 62.5656C70.6798 63.4905 69.8532 64.1962 68.8612 64.4753C67.9977 64.7184 67.2652 64.5752 66.8086 64.4079C66.3414 64.2367 65.862 63.9347 65.4622 63.4562C65.0563 62.9705 64.5784 62.0922 64.6742 60.9279L72.6472 61.5836Z" fill="black" mask="url(#path-7-inside-1_501_5879)"/>
<mask id="path-9-inside-2_501_5879" fill="white">
<path d="M104.535 67.4997C103.183 70.6097 104.462 74.2929 107.602 75.769C112.297 77.9761 115.83 73.562 117.778 69.9361C118.883 67.8867 115.452 65.7513 114.434 67.8867C113.431 69.9934 111.658 74.0062 108.62 73.605C106.148 73.2897 105.669 69.7928 105.727 67.858C105.77 67.3278 104.811 66.8978 104.535 67.4997Z"/>
</mask>
<path d="M104.535 67.4997C103.183 70.6097 104.462 74.2929 107.602 75.769C112.297 77.9761 115.83 73.562 117.778 69.9361C118.883 67.8867 115.452 65.7513 114.434 67.8867C113.431 69.9934 111.658 74.0062 108.62 73.605C106.148 73.2897 105.669 69.7928 105.727 67.858C105.77 67.3278 104.811 66.8978 104.535 67.4997Z" fill="#282B2D"/>
<path d="M104.535 67.4997L100.899 65.8315L100.883 65.8681L100.866 65.9051L104.535 67.4997ZM107.602 75.769L105.9 79.3889L105.901 79.389L107.602 75.769ZM117.778 69.9361L114.257 68.038L114.254 68.0431L117.778 69.9361ZM114.434 67.8867L110.823 66.166L110.823 66.1672L114.434 67.8867ZM108.62 73.605L109.143 69.6394L109.135 69.6382L109.126 69.6371L108.62 73.605ZM105.727 67.858L101.74 67.5302L101.732 67.6339L101.729 67.7379L105.727 67.858ZM100.866 65.9051C98.6874 70.9177 100.723 76.9551 105.9 79.3889L109.304 72.1491C108.201 71.6306 107.678 70.3017 108.203 69.0944L100.866 65.9051ZM105.901 79.389C109.877 81.2581 113.5 80.1987 116.115 78.2437C118.52 76.4459 120.225 73.8334 121.302 71.8291L114.254 68.0431C113.383 69.6646 112.347 71.0722 111.325 71.8361C110.854 72.1883 110.508 72.3111 110.28 72.3468C110.094 72.3759 109.799 72.3816 109.304 72.149L105.901 79.389ZM121.299 71.8342C123.244 68.2262 120.863 65.0876 119.004 63.9391C117.977 63.3045 116.538 62.8203 114.94 63.0633C113.148 63.336 111.634 64.4654 110.823 66.166L118.045 69.6074C117.924 69.8626 117.696 70.1917 117.318 70.476C116.939 70.7602 116.523 70.9145 116.143 70.9723C115.44 71.0793 114.98 70.8566 114.8 70.7451C114.604 70.6239 114.332 70.3883 114.151 69.9376C113.931 69.3871 113.923 68.6568 114.257 68.038L121.299 71.8342ZM110.823 66.1672C110.256 67.3581 109.756 68.431 109.136 69.2266C108.485 70.0608 108.528 69.558 109.143 69.6394L108.096 77.5705C111.75 78.0532 114.198 75.7446 115.445 74.146C116.721 72.5089 117.61 70.522 118.046 69.6062L110.823 66.1672ZM109.126 69.6371C109.28 69.6567 109.455 69.7077 109.627 69.797C109.795 69.8841 109.912 69.9832 109.984 70.0564C110.106 70.1826 110.069 70.2058 109.982 69.9678C109.901 69.7451 109.825 69.4257 109.776 69.033C109.728 68.6479 109.716 68.273 109.725 67.9782L101.729 67.7379C101.691 69.0003 101.811 70.9112 102.467 72.7098C103.107 74.4637 104.7 77.1373 108.113 77.5728L109.126 69.6371ZM109.713 68.1859C109.831 66.7564 109.249 65.6256 108.667 64.9289C108.091 64.2394 107.363 63.7681 106.627 63.4985C105.901 63.2326 104.88 63.0617 103.76 63.3768C102.512 63.7281 101.462 64.6057 100.899 65.8315L108.17 69.1679C107.746 70.0928 106.919 70.7985 105.927 71.0776C105.064 71.3207 104.331 71.1775 103.875 71.0102C103.408 70.839 102.928 70.537 102.528 70.0585C102.122 69.5728 101.645 68.6945 101.74 67.5302L109.713 68.1859Z" fill="black" mask="url(#path-9-inside-2_501_5879)"/>
<path d="M92.8785 88.8066C92.8784 88.8066 92.8791 88.8053 92.8809 88.8026C92.8794 88.8053 92.8786 88.8067 92.8785 88.8066ZM95.8578 86.4311C95.8594 86.4289 95.8604 86.4277 95.8605 86.4277C95.8605 86.4277 95.8597 86.4289 95.8578 86.4311ZM92.6649 87.4706C92.6563 87.4674 92.6523 87.4653 92.6525 87.465C92.6526 87.4648 92.6569 87.4664 92.6649 87.4706Z" fill="#282B2D" stroke="black" stroke-width="4"/>
<mask id="path-12-inside-3_501_5879" fill="white">
<path d="M69.1985 82.9536C69.1985 82.9536 71.1174 86.7514 72.571 85.4473C74.0393 84.1574 72.1204 80.8325 71.1464 80.03C70.187 79.2561 67.8902 79.3994 69.1985 82.9536Z"/>
</mask>
<path d="M69.1985 82.9536C69.1985 82.9536 71.1174 86.7514 72.571 85.4473C74.0393 84.1574 72.1204 80.8325 71.1464 80.03C70.187 79.2561 67.8902 79.3994 69.1985 82.9536Z" fill="#282B2D"/>
<path d="M69.1985 82.9536L65.4448 84.3354L65.5244 84.5517L65.6283 84.7574L69.1985 82.9536ZM72.571 85.4473L69.9311 82.4422L69.9154 82.456L69.8999 82.4699L72.571 85.4473ZM71.1464 80.03L73.6902 76.943L73.674 76.9297L73.6578 76.9166L71.1464 80.03ZM69.1985 82.9536C65.6283 84.7574 65.6287 84.7582 65.6291 84.759C65.6293 84.7593 65.6297 84.7601 65.63 84.7607C65.6306 84.7619 65.6312 84.7631 65.6318 84.7643C65.6331 84.7669 65.6346 84.7697 65.6361 84.7727C65.6392 84.7788 65.6428 84.7858 65.6469 84.7938C65.6551 84.8097 65.6653 84.8294 65.6774 84.8525C65.7016 84.8987 65.7336 84.959 65.773 85.0311C65.8513 85.1744 65.9607 85.3686 66.0965 85.5936C66.357 86.0253 66.7633 86.6516 67.2784 87.2641C67.7266 87.797 68.5739 88.7095 69.7917 89.2566C70.4579 89.5559 71.3743 89.8079 72.4439 89.6908C73.5565 89.5691 74.5086 89.0829 75.2422 88.4247L69.8999 82.4699C70.0717 82.3157 70.3043 82.1484 70.6021 82.0095C70.9034 81.8688 71.2326 81.7756 71.5737 81.7383C72.2601 81.6632 72.788 81.8325 73.07 81.9591C73.3395 82.0802 73.4765 82.2014 73.4838 82.2077C73.5009 82.2226 73.4713 82.1986 73.4009 82.1149C73.2546 81.9409 73.0903 81.6993 72.9456 81.4596C72.8788 81.349 72.8269 81.2566 72.7946 81.1974C72.7787 81.1682 72.7681 81.1482 72.7635 81.1394C72.7612 81.135 72.7604 81.1335 72.7612 81.1351C72.7617 81.1359 72.7625 81.1375 72.7637 81.14C72.7643 81.1412 72.7651 81.1426 72.7659 81.1442C72.7663 81.1451 72.7667 81.1459 72.7672 81.1468C72.7674 81.1473 72.7678 81.148 72.7679 81.1483C72.7683 81.149 72.7687 81.1498 69.1985 82.9536ZM75.211 88.4524C76.6507 87.1876 77.0752 85.5333 77.1038 84.2594C77.131 83.0476 76.8234 81.9447 76.5106 81.127C76.1843 80.2738 75.7568 79.4839 75.3235 78.8282C74.9258 78.2265 74.3684 77.5019 73.6902 76.943L68.6027 83.117C68.4756 83.0122 68.4384 82.9578 68.483 83.011C68.516 83.0504 68.5752 83.1268 68.6493 83.2391C68.8038 83.4728 68.9469 83.7452 69.0385 83.9848C69.0824 84.0997 69.1025 84.1759 69.1099 84.2106C69.1181 84.2491 69.1031 84.2007 69.1058 84.0797C69.1086 83.9575 69.131 83.7085 69.2561 83.3949C69.3889 83.062 69.6127 82.7219 69.9311 82.4422L75.211 88.4524ZM73.6578 76.9166C72.8105 76.2332 71.776 75.8154 70.7333 75.6894C69.6865 75.5629 68.2647 75.6979 66.9795 76.6265C64.044 78.7475 64.7026 82.3193 65.4448 84.3354L72.9523 81.5718C72.7383 80.9907 72.8278 80.9458 72.799 81.2568C72.761 81.6682 72.5127 82.4983 71.6647 83.111C70.91 83.6563 70.1606 83.6784 69.7734 83.6316C69.3903 83.5853 69.0027 83.4398 68.6351 83.1434L73.6578 76.9166Z" fill="black" mask="url(#path-12-inside-3_501_5879)"/>
<path d="M74.1558 98.6609C74.1997 98.6609 74.1997 98.5892 74.1558 98.5892C74.1118 98.5892 74.1118 98.6609 74.1558 98.6609Z" fill="#282B2D" stroke="black" stroke-width="4"/>
<path d="M81.6274 104.179C80.5517 103.519 79.6214 102.459 79.1998 101.269C79.0866 100.948 79.0741 100.578 79.0616 100.211C79.0468 99.777 79.0322 99.3467 78.8509 99.0049C78.8451 98.9933 78.8388 98.9809 78.8322 98.9677C78.7067 98.7181 78.4409 98.1894 78.1095 98.2166L81.6274 104.179Z" fill="#302218" stroke="#373218" stroke-width="4"/>
<path opacity="0.8" d="M113.89 83.6681C113.267 83.1111 113.156 82.7738 113.134 82.6668C113.208 82.5858 113.482 82.3405 114.333 82.1735C115.423 81.9597 116.977 82.0086 118.692 82.4752C120.389 82.9408 121.735 83.6862 122.551 84.4195C123.165 84.972 123.283 85.3111 123.309 85.424C123.229 85.5097 122.949 85.7485 122.116 85.9122C121.028 86.126 119.477 86.0769 117.77 85.6104C116.061 85.1436 114.708 84.3996 113.89 83.6681Z" fill="#DAB2C8" stroke="black" stroke-width="4"/>
<path opacity="0.8" d="M59.9647 73.5636L59.9642 73.5636C58.1935 73.4375 56.7216 72.9678 55.7758 72.4059C55.0489 71.9741 54.8703 71.6564 54.8261 71.5504C54.8858 71.453 55.1106 71.1666 55.8948 70.8458C56.9191 70.4269 58.4489 70.1758 60.214 70.3015C61.9772 70.4342 63.4514 70.9068 64.402 71.4708C65.1211 71.8974 65.3062 72.2107 65.354 72.3183C65.2912 72.4187 65.0629 72.7023 64.2873 73.0195C63.2623 73.4388 61.7313 73.6898 59.9647 73.5636Z" fill="#DAB2C8" stroke="black" stroke-width="4"/>
<path d="M150.692 32.8076C150.692 32.8076 178.515 45.577 181.175 55.4944C183.836 65.4261 179.387 76.9917 170.607 70.7145C161.798 64.4516 149.224 38.4112 150.692 32.8076Z" fill="#FFE465"/>
<path opacity="0.8" d="M155.358 39.9017C155.358 39.9017 174.532 53.0437 175.492 61.3703C176.451 69.6969 172.57 64.3226 166.159 58.9053C159.763 53.488 155.358 39.9017 155.358 39.9017Z" fill="#050505"/>
<path d="M79.0252 41.0482C81.8017 38.4685 83.6479 34.9716 85.4505 31.5464C84.2584 36.0035 88.6922 40.4463 93.0532 40.389C97.4142 40.3316 101.208 37.1357 103.927 33.5098C101.499 37.2217 104.174 42.8396 108.201 44.2871C112.242 45.7203 116.719 43.9718 120.15 41.2918C119.103 45.9353 119.074 50.9943 120.978 55.3224C122.883 59.6505 126.997 63.0471 131.488 63.0327C135.98 63.0184 140.385 58.9626 140.269 54.1759C140.123 59.6648 140.574 66.3003 145.139 68.8943C148.511 70.8148 152.916 69.4103 155.59 66.5153C158.265 63.6203 159.53 59.5645 160.271 55.5804C161.231 50.378 160.475 43.4559 155.663 42.0228C157.364 38.5259 157.204 34.0831 155.256 30.7152C153.308 27.3616 149.645 25.2119 145.938 25.2406C145.691 17.0573 137.129 10.4218 129.715 12.6861C128.886 8.68766 126.895 4.73216 123.537 2.72575C120.164 0.719337 115.309 1.32126 113.187 4.74649C110.526 1.96618 106.805 -0.0975594 103.142 0.676342C99.4785 1.45024 96.5711 6.022 98.301 9.54755C95.9896 6.12232 91.5705 4.47419 87.7473 5.60638C83.9241 6.73857 80.9441 10.5651 80.6243 14.7642C76.5976 14.8072 72.2656 14.9505 69.0094 17.4729C65.8694 19.8949 64.6047 25.2406 67.5411 28.3505C60.2291 26.946 61.1013 35.3729 63.9651 39.3571C68.0209 45.018 73.7338 45.9782 79.0252 41.0482Z" fill="#FFE465"/>
<path d="M79.0253 41.0481C81.8455 38.3825 83.648 34.9143 85.4215 31.532C85.436 31.5177 85.4506 31.5034 85.4651 31.5177C85.4796 31.532 85.4796 31.5464 85.4796 31.5607C84.8982 33.7104 85.7122 36.0178 87.195 37.6229C88.6632 39.2424 90.8146 40.3459 93.0242 40.3316C95.2484 40.3029 97.3853 39.4 99.1733 38.1245C100.976 36.849 102.502 35.2152 103.811 33.4524C103.854 33.4095 103.912 33.3951 103.97 33.4238C104.014 33.4524 104.029 33.5241 104 33.5814C102.822 35.3729 102.895 37.7232 103.723 39.658C104.552 41.5927 106.093 43.2982 108.07 44.0578C110.061 44.8173 112.315 44.7457 114.35 44.1151C116.399 43.4988 118.289 42.4096 119.946 41.0768C120.063 40.9765 120.237 41.0052 120.339 41.1198C120.397 41.1915 120.412 41.2775 120.397 41.3491C119.67 44.7027 119.481 48.1996 120.15 51.5531C120.804 54.8924 122.49 58.0453 125.136 60.1807C127.709 62.3161 131.416 63.305 134.483 61.8862C137.521 60.5677 139.775 57.4434 139.644 54.2045H140.836C140.807 56.4832 140.85 58.7619 141.243 60.9689C141.606 63.1617 142.333 65.3257 143.758 66.9022C145.168 68.493 147.276 69.3099 149.398 68.9946C151.52 68.7366 153.526 67.6044 154.98 66.0423C157.931 62.8034 159.108 58.1743 159.69 53.7889C159.908 51.5818 159.821 49.3318 159.21 47.2537C158.629 45.19 157.35 43.3412 155.402 42.8109C154.965 42.6819 154.704 42.2377 154.835 41.8077C154.849 41.7647 154.864 41.7217 154.878 41.6931L154.893 41.6644C156.419 38.4541 156.303 34.47 154.631 31.36C152.959 28.2501 149.5 26.0287 145.938 26.0574C145.502 26.0574 145.139 25.7134 145.124 25.2835C145.022 21.6576 143.103 18.1464 140.225 15.839C137.391 13.5173 133.451 12.3278 129.933 13.4027C129.541 13.503 129.134 13.288 129.003 12.9011L128.988 12.8294C128.61 10.9806 127.985 9.16054 127.069 7.52674C126.168 5.89295 124.932 4.43114 123.377 3.42793C121.865 2.43906 119.946 2.03778 118.144 2.29574C116.341 2.53938 114.64 3.51392 113.681 5.04739C113.507 5.31969 113.158 5.40568 112.881 5.24803C112.838 5.21937 112.794 5.19071 112.751 5.14771C111.5 3.81488 110.018 2.66836 108.375 1.90879C106.732 1.13489 104.886 0.805265 103.142 1.19222C101.441 1.57917 99.9583 2.82601 99.0715 4.35948C98.1703 5.87862 97.8941 7.79904 98.6645 9.37551C98.7663 9.57615 98.679 9.81979 98.4755 9.92011C98.2866 10.0204 98.054 9.94877 97.9377 9.77679C95.8298 6.53787 91.4543 4.77509 87.6747 5.96461C83.9097 7.15412 81.1768 10.8803 80.8424 14.7785C80.8279 14.8931 80.7261 14.9791 80.6098 14.9935C78.5747 15.0078 76.525 15.0365 74.5189 15.3661C72.5274 15.6957 70.5649 16.3979 68.9804 17.6448C67.4104 18.8916 66.4074 20.7691 66.073 22.7181C65.7241 24.6672 66.1748 26.8026 67.5703 28.2788C67.6139 28.3218 67.5994 28.3791 67.5703 28.4221C67.5412 28.4507 67.5122 28.4507 67.4831 28.4507C66.1457 28.2214 64.663 28.2071 63.5291 28.981C62.4243 29.7979 61.9882 31.2167 61.93 32.5639C61.8719 35.2869 62.8313 38.0385 64.6048 40.1453C66.3056 42.2663 68.7333 44.0434 71.5534 44.2011C74.3881 44.3731 77.0192 42.8969 79.0253 41.0481ZM79.0253 41.0481C77.0192 42.9112 74.4026 44.4017 71.5679 44.2297C68.7333 44.0864 66.262 42.3093 64.5467 40.1883C62.7586 38.0672 61.7556 35.3012 61.7992 32.5352C61.8428 31.1737 62.2789 29.6976 63.4419 28.8234C64.6484 27.9921 66.1748 28.0065 67.5412 28.2358L67.454 28.3934C66.0003 26.8886 65.5206 24.6672 65.8695 22.6608C66.2039 20.6544 67.2214 18.7197 68.835 17.4155C70.4486 16.1113 72.4547 15.3661 74.4753 14.9935C76.5104 14.6208 78.5747 14.5492 80.6244 14.5205L80.3918 14.7355C80.6825 10.651 83.43 6.70985 87.4857 5.34835C89.5063 4.6891 91.7305 4.78942 93.7075 5.52033C95.6845 6.23691 97.4434 7.56974 98.6354 9.31818L97.9086 9.71947C96.9637 7.85637 97.2835 5.62065 98.272 3.90087C99.246 2.16676 100.874 0.719276 102.909 0.217673C104.915 -0.269598 107.023 0.103021 108.826 0.919917C110.643 1.73681 112.242 2.94066 113.608 4.34515L112.678 4.44547C113.797 2.58237 115.832 1.37853 117.94 1.06323C120.048 0.733608 122.287 1.16355 124.104 2.29574C125.906 3.4136 127.302 5.04739 128.32 6.8245C129.337 8.61594 130.006 10.5507 130.427 12.5284L129.483 11.9695C131.503 11.3389 133.684 11.3533 135.704 11.8549C137.725 12.3565 139.6 13.331 141.199 14.6065C144.397 17.1575 146.607 21.0414 146.738 25.1975L145.924 24.4236C150.183 24.3806 154.151 26.9316 156.128 30.5431C158.105 34.169 158.207 38.6404 156.419 42.3666L155.91 41.2201C157.19 41.6071 158.353 42.424 159.152 43.4415C159.966 44.459 160.475 45.6342 160.809 46.7951C161.493 49.1598 161.551 51.5818 161.304 53.9322C161.027 56.3112 160.489 58.5613 159.719 60.8113C158.934 63.047 157.8 65.2254 156.114 67.0168C154.399 68.8083 152.131 70.0981 149.587 70.3991C148.322 70.5567 147.014 70.4277 145.807 69.9548C144.586 69.4962 143.554 68.708 142.726 67.7621C141.068 65.8417 140.341 63.434 139.978 61.1123C139.615 58.7762 139.6 56.4402 139.658 54.1185C139.658 53.7889 139.934 53.5309 140.269 53.5452C140.589 53.5452 140.85 53.8032 140.85 54.1185C140.923 57.9163 138.306 61.3272 134.905 62.7604C133.204 63.4913 131.227 63.6633 129.439 63.2333C127.636 62.832 125.979 61.9435 124.598 60.7826C121.793 58.4753 120.092 55.093 119.467 51.6391C118.813 48.1566 119.074 44.588 119.874 41.1915L120.31 41.4638C118.58 42.7966 116.617 43.8858 114.495 44.502C112.387 45.1183 110.032 45.1756 107.954 44.3444C105.875 43.4988 104.319 41.7217 103.491 39.7153C102.648 37.7232 102.575 35.2869 103.825 33.4238L104.014 33.5528C102.677 35.3155 101.136 36.9637 99.3041 38.2392C97.487 39.5147 95.321 40.4176 93.0533 40.4319C90.771 40.4319 88.6196 39.2997 87.1368 37.6516C85.6395 36.0178 84.8255 33.6674 85.436 31.5034L85.4942 31.532C83.6916 34.9286 81.8745 38.3968 79.0253 41.0481Z" fill="#050505"/>
<path d="M83.3572 22.4458C85.058 18.0461 90.4075 21.4283 92.0647 23.8503C92.1374 23.965 92.37 24.0366 92.4281 23.8647C93.9545 20.1098 98.5481 18.1751 102.371 19.8805C102.56 19.9665 102.604 19.6942 102.473 19.6082C100.641 18.1751 98.5917 17.6735 96.353 18.4903C95.161 18.9203 94.2016 19.6225 93.4021 20.5971C92.5589 21.6146 92.5444 22.9761 91.585 22.3025C90.5529 21.5716 90.2912 19.9665 89.0701 19.2213C88.1688 18.6767 87.1513 18.4617 86.1191 18.5477C83.9096 18.734 82.6594 20.2961 83.0373 22.4315C83.0955 22.5892 83.3135 22.5892 83.3572 22.4458Z" fill="#050505"/>
<path d="M119.743 28.1211C122.272 27.5908 125.092 28.0924 125.659 31.0161C125.747 31.446 126.212 31.7613 126.619 31.79C128.218 31.919 129.541 32.8792 130.297 34.2693C131.009 35.5735 130.718 36.7773 130.587 38.1532C130.529 38.7408 131.503 39.2853 131.925 38.7694C134.832 35.1435 130.529 30.0129 126.575 29.8552C126.895 30.1132 127.215 30.3712 127.535 30.6291C126.808 27.4905 122.011 24.5812 119.379 27.4762C119.147 27.7485 119.394 28.1928 119.743 28.1211Z" fill="#050505"/>
<path d="M113.318 15.3088C114.669 11.6973 118.289 11.9122 121.473 12.1559C121.763 12.1845 122.04 11.8692 121.923 11.5826C120.978 9.27524 118.187 8.88829 115.992 9.50454C113.521 10.2068 111.428 11.9982 111.093 14.5922C110.919 15.9537 112.794 16.7133 113.318 15.3088Z" fill="#050505"/>
<path d="M147.261 46.8524C149.194 46.5658 149.194 43.8715 149.02 42.467C148.744 40.3459 147.828 38.3252 145.924 37.193C145.066 36.6771 144.295 37.5656 144.673 38.3825C145.371 39.873 146.2 41.3348 146.374 42.9972C146.49 44.2298 146.2 45.6629 146.97 46.7234C147.043 46.8094 147.145 46.8668 147.261 46.8524Z" fill="#050505"/>
</svg>
