<svg width="76" height="44" viewBox="0 0 76 44" fill="none" xmlns="http://www.w3.org/2000/svg">
<path fill-rule="evenodd" clip-rule="evenodd" d="M15.9827 0.125H37.7586C46.8645 0.125 53.2221 4.99302 53.2221 11.9693V32.0307C53.2221 39.007 46.8645 43.875 37.7586 43.875H15.9827C6.87686 43.875 0.519287 39.007 0.519287 32.0307V11.9693C0.519287 4.99302 6.87686 0.125 15.9827 0.125ZM68.0344 7.06371C69.6849 6.41227 71.6211 6.48037 73.1964 7.25025C74.7717 8.01717 75.7116 9.34966 75.7116 10.8065V33.1953C75.7116 34.6551 74.7717 35.9846 73.1964 36.7515C72.3354 37.169 71.373 37.3822 70.403 37.3822C69.5946 37.3822 68.7863 37.2342 68.0306 36.9351L62.4626 34.7558C60.4023 33.9444 59.124 32.3158 59.124 30.5066V13.4922C59.124 11.68 60.4023 10.0514 62.4626 9.24602L68.0344 7.06371Z" fill="white"/>
</svg>
